<svg width="292" height="292" viewBox="0 0 292 292" fill="none" xmlns="http://www.w3.org/2000/svg">
<path d="M269.095 232.143C273.379 222.933 275.274 212.682 276.587 202.727C280.212 175.264 278.764 147.035 270.837 120.328C252.76 59.429 217.999 23.0651 173.967 19.1219C129.935 15.1787 87.7577 38.8372 71.5353 83.5254C55.313 128.214 9.4275 165.454 17.3068 201.818C25.1862 238.182 59.4845 263.154 127.154 271.479C156.632 275.105 187.84 276.74 216.868 269.449C233.438 265.287 249.726 257.234 260.917 244.716C264.351 240.876 267.007 236.633 269.095 232.143Z" fill="#18A532"/>
<path opacity="0.7" d="M269.095 232.143C273.379 222.933 275.274 212.682 276.587 202.727C280.212 175.264 278.764 147.035 270.837 120.328C252.76 59.429 217.999 23.0651 173.967 19.1219C129.935 15.1787 87.7577 38.8372 71.5353 83.5254C55.313 128.214 9.4275 165.454 17.3068 201.818C25.1862 238.182 59.4845 263.154 127.154 271.479C156.632 275.105 187.84 276.74 216.868 269.449C233.438 265.287 249.726 257.234 260.917 244.716C264.351 240.876 267.007 236.633 269.095 232.143Z" fill="white"/>
<path d="M274.615 245.864H282.072" stroke="#263238" stroke-width="0.584" stroke-miterlimit="10" stroke-linecap="round" stroke-linejoin="round"/>
<path d="M56.6521 245.864H270.116" stroke="#263238" stroke-width="0.584" stroke-miterlimit="10" stroke-linecap="round" stroke-linejoin="round"/>
<path d="M13.432 245.864H50.1533" stroke="#263238" stroke-width="0.584" stroke-miterlimit="10" stroke-linecap="round" stroke-linejoin="round"/>
<path d="M154.711 67.8871H146.06V76.5385H154.711V67.8871Z" fill="#18A532" stroke="#263238" stroke-width="0.584" stroke-miterlimit="10" stroke-linecap="round" stroke-linejoin="round"/>
<path d="M170.269 80.5051L163.751 86.1942L169.44 92.7122L175.958 87.023L170.269 80.5051Z" fill="#18A532" stroke="#263238" stroke-width="0.584" stroke-miterlimit="10" stroke-linecap="round" stroke-linejoin="round"/>
<path d="M121.596 41.976L115.078 47.6643L120.767 54.1822L127.284 48.4939L121.596 41.976Z" fill="#263238" stroke="#263238" stroke-width="0.584" stroke-miterlimit="10" stroke-linecap="round" stroke-linejoin="round"/>
<path d="M121.594 77.0156L115.077 82.7038L120.765 89.2218L127.283 83.5335L121.594 77.0156Z" fill="white" stroke="#263238" stroke-width="0.584" stroke-miterlimit="10" stroke-linecap="round" stroke-linejoin="round"/>
<path d="M160.145 41.5732L153.627 47.2623L159.316 53.7803L165.834 48.0911L160.145 41.5732Z" fill="#18A532" stroke="#263238" stroke-width="0.584" stroke-miterlimit="10" stroke-linecap="round" stroke-linejoin="round"/>
<path d="M153.823 82.417L155.656 86.1324L159.757 86.7281L156.789 89.6201L157.49 93.7034L153.823 91.7756L150.156 93.7034L150.856 89.6201L147.889 86.7281L151.989 86.1324L153.823 82.417Z" fill="#263238" stroke="#263238" stroke-width="0.584" stroke-miterlimit="10" stroke-linecap="round" stroke-linejoin="round"/>
<path d="M122.593 56.0634L124.427 59.7788L128.527 60.3745L125.56 63.2665L126.26 67.3504L122.593 65.422L118.926 67.3504L119.626 63.2665L116.659 60.3745L120.76 59.7788L122.593 56.0634Z" fill="#18A532" stroke="#263238" stroke-width="0.584" stroke-miterlimit="10" stroke-linecap="round" stroke-linejoin="round"/>
<path d="M176.738 35.4564L175.476 39.4025L178.01 42.6799L173.867 42.698L171.533 46.1214L170.235 42.187L166.258 41.0248L169.599 38.575L169.476 34.4338L172.838 36.8545L176.738 35.4564Z" fill="white" stroke="#263238" stroke-width="0.584" stroke-miterlimit="10" stroke-linecap="round" stroke-linejoin="round"/>
<path d="M149.108 100.921L153.22 101.431L155.971 98.3333L156.757 102.401L160.553 104.061L156.927 106.065L156.522 110.188L153.495 107.358L149.448 108.248L151.204 104.495L149.108 100.921Z" fill="#18A532" stroke="#263238" stroke-width="0.584" stroke-miterlimit="10" stroke-linecap="round" stroke-linejoin="round"/>
<path d="M172.213 72.3101C172.988 69.0426 170.967 65.7654 167.7 64.9903C164.432 64.2152 161.155 66.2358 160.38 69.5033C159.605 72.7709 161.625 76.0481 164.893 76.8231C168.16 77.5982 171.438 75.5777 172.213 72.3101Z" fill="white" stroke="#263238" stroke-width="0.584" stroke-miterlimit="10" stroke-linecap="round" stroke-linejoin="round"/>
<path d="M146.989 113.897C149.363 111.523 149.363 107.673 146.989 105.298C144.614 102.924 140.764 102.924 138.389 105.298C136.015 107.673 136.015 111.523 138.389 113.897C140.764 116.272 144.614 116.272 146.989 113.897Z" fill="white" stroke="#263238" stroke-width="0.584" stroke-miterlimit="10" stroke-linecap="round" stroke-linejoin="round"/>
<path d="M187.258 57.81C190.403 56.6333 191.999 53.1296 190.822 49.9843C189.645 46.839 186.142 45.2431 182.996 46.4198C179.851 47.5966 178.255 51.1003 179.432 54.2456C180.609 57.3909 184.112 58.9868 187.258 57.81Z" fill="#263238" stroke="#263238" stroke-width="0.584" stroke-miterlimit="10" stroke-linecap="round" stroke-linejoin="round"/>
<path d="M145.738 61.409C146.513 58.1414 144.493 54.8642 141.225 54.0891C137.957 53.314 134.68 55.3346 133.905 58.6022C133.13 61.8697 135.151 65.1469 138.418 65.922C141.686 66.6971 144.963 64.6765 145.738 61.409Z" fill="white" stroke="#263238" stroke-width="0.584" stroke-miterlimit="10" stroke-linecap="round" stroke-linejoin="round"/>
<path d="M140.132 78.5597L130.414 72.4534L129.984 83.922L140.132 78.5597Z" fill="#263238" stroke="#263238" stroke-width="0.584" stroke-miterlimit="10" stroke-linecap="round" stroke-linejoin="round"/>
<path d="M185.638 74.4489L183.777 63.1234L174.9 70.3983L185.638 74.4489Z" fill="#263238" stroke="#263238" stroke-width="0.584" stroke-miterlimit="10" stroke-linecap="round" stroke-linejoin="round"/>
<path d="M143.823 99.923L144.285 88.4556L134.123 93.7892L143.823 99.923Z" fill="#18A532" stroke="#263238" stroke-width="0.584" stroke-miterlimit="10" stroke-linecap="round" stroke-linejoin="round"/>
<path d="M173.468 61.3609L173.93 49.8929L163.768 55.2266L173.468 61.3609Z" fill="#18A532" stroke="#263238" stroke-width="0.584" stroke-miterlimit="10" stroke-linecap="round" stroke-linejoin="round"/>
<path d="M133.791 39.4071L139.775 49.2008L145.265 39.1216L133.791 39.4071Z" fill="#18A532" stroke="#263238" stroke-width="0.584" stroke-miterlimit="10" stroke-linecap="round" stroke-linejoin="round"/>
<g opacity="0.3">
<path d="M229.256 89.4128C229.18 89.4128 229.106 89.383 229.052 89.3298C228.995 89.2749 228.964 89.1996 228.964 89.1208V85.3288C228.964 83.3888 228.78 76.5572 228.778 76.4883C228.774 76.3306 228.895 76.198 229.053 76.1887C229.099 76.1857 233.751 75.9066 237.615 76.0479C241.454 76.1857 243.501 76.0497 243.522 76.0485C243.599 76.0462 243.678 76.0695 243.736 76.1221C243.795 76.1746 243.83 76.2482 243.834 76.3271L244.391 88.9677C244.394 89.0472 244.365 89.1248 244.309 89.1827C244.254 89.2405 244.178 89.2726 244.099 89.2726H237.419C234.855 89.2726 229.319 89.4116 229.263 89.4128C229.261 89.4128 229.258 89.4128 229.256 89.4128ZM229.37 76.7563C229.405 78.075 229.548 83.609 229.548 85.3288V88.8217C230.741 88.7925 235.194 88.6886 237.42 88.6886H243.794L243.264 76.6471C242.56 76.6798 240.626 76.7417 237.595 76.6319C234.301 76.5122 230.432 76.6985 229.37 76.7563Z" fill="black"/>
<path d="M238.712 77.3999C238.712 76.8638 238.277 76.4287 237.741 76.4287C237.204 76.4287 236.769 76.8632 236.769 77.3999C236.769 77.936 237.204 78.3711 237.741 78.3711C238.277 78.3705 238.712 77.936 238.712 77.3999Z" fill="black"/>
<path d="M238.873 77.7047C239.41 77.7047 239.845 77.2699 239.845 76.7335C239.845 76.1972 239.41 75.7623 238.873 75.7623C238.337 75.7623 237.902 76.1972 237.902 76.7335C237.902 77.2699 238.337 77.7047 238.873 77.7047Z" fill="black"/>
<path d="M236.543 78.6152C236.463 78.6152 236.384 78.5825 236.326 78.5188C236.217 78.3991 236.227 78.2146 236.347 78.1065L237.013 77.5068C237.133 77.3981 237.318 77.4086 237.426 77.5284C237.534 77.6481 237.524 77.8326 237.405 77.9407L236.738 78.5404C236.682 78.5901 236.612 78.6152 236.543 78.6152Z" fill="black"/>
<path d="M239.88 81.2513H232.348C232.187 81.2513 232.056 81.1205 232.056 80.9593C232.056 80.7982 232.187 80.6673 232.348 80.6673H239.88C240.042 80.6673 240.172 80.7982 240.172 80.9593C240.172 81.1211 240.042 81.2513 239.88 81.2513Z" fill="black"/>
<path d="M240.324 83.7625H232.348C232.187 83.7625 232.056 83.6317 232.056 83.4705C232.056 83.3094 232.187 83.1785 232.348 83.1785H240.324C240.485 83.1785 240.616 83.3094 240.616 83.4705C240.616 83.6317 240.485 83.7625 240.324 83.7625Z" fill="black"/>
<path d="M240.471 86.126H232.348C232.187 86.126 232.056 85.9952 232.056 85.834C232.056 85.6728 232.187 85.542 232.348 85.542H240.471C240.633 85.542 240.763 85.6728 240.763 85.834C240.763 85.9952 240.633 86.126 240.471 86.126Z" fill="black"/>
</g>
<g opacity="0.3">
<path d="M266.333 132.211C266.257 132.211 266.184 132.181 266.129 132.128C266.073 132.073 266.041 131.997 266.041 131.919V128.127C266.041 126.187 265.858 119.355 265.856 119.286C265.852 119.128 265.973 118.996 266.131 118.986C266.177 118.984 270.828 118.704 274.693 118.846C278.531 118.984 280.579 118.847 280.6 118.846C280.676 118.843 280.756 118.867 280.814 118.919C280.873 118.972 280.907 119.045 280.912 119.124L281.468 131.765C281.472 131.844 281.442 131.922 281.387 131.98C281.331 132.038 281.256 132.07 281.176 132.07H274.496C271.932 132.07 266.396 132.209 266.34 132.21C266.338 132.211 266.336 132.211 266.333 132.211ZM266.447 119.554C266.482 120.873 266.625 126.407 266.625 128.127V131.62C267.818 131.59 272.271 131.486 274.497 131.486H280.871L280.341 119.445C279.637 119.478 277.703 119.54 274.672 119.43C271.379 119.31 267.51 119.497 266.447 119.554Z" fill="black"/>
<path d="M275.789 120.198C275.789 119.662 275.354 119.227 274.818 119.227C274.281 119.227 273.846 119.661 273.846 120.198C273.846 120.734 274.281 121.169 274.818 121.169C275.354 121.169 275.789 120.734 275.789 120.198Z" fill="black"/>
<path d="M276.922 119.531C276.922 118.995 276.487 118.56 275.95 118.56C275.414 118.56 274.979 118.995 274.979 119.531C274.979 120.067 275.414 120.503 275.95 120.503C276.487 120.503 276.922 120.067 276.922 119.531Z" fill="black"/>
<path d="M273.62 121.413C273.54 121.413 273.462 121.38 273.404 121.317C273.295 121.197 273.305 121.012 273.425 120.904L274.091 120.305C274.21 120.196 274.396 120.206 274.503 120.326C274.611 120.446 274.602 120.63 274.482 120.738L273.816 121.338C273.76 121.388 273.69 121.413 273.62 121.413Z" fill="black"/>
<path d="M276.957 124.05H269.425C269.264 124.05 269.133 123.919 269.133 123.758C269.133 123.597 269.264 123.466 269.425 123.466H276.957C277.118 123.466 277.249 123.597 277.249 123.758C277.249 123.919 277.119 124.05 276.957 124.05Z" fill="black"/>
<path d="M277.401 126.56H269.425C269.264 126.56 269.133 126.43 269.133 126.268C269.133 126.107 269.264 125.976 269.425 125.976H277.401C277.562 125.976 277.693 126.107 277.693 126.268C277.693 126.43 277.562 126.56 277.401 126.56Z" fill="black"/>
<path d="M277.548 128.924H269.425C269.264 128.924 269.133 128.793 269.133 128.632C269.133 128.471 269.264 128.34 269.425 128.34H277.548C277.709 128.34 277.84 128.471 277.84 128.632C277.84 128.793 277.71 128.924 277.548 128.924Z" fill="black"/>
</g>
<g opacity="0.3">
<path d="M94.0305 111.165C93.9545 111.165 93.8809 111.135 93.8266 111.082C93.77 111.027 93.7385 110.952 93.7385 110.873V107.081C93.7385 105.141 93.5551 98.3094 93.5533 98.2405C93.5492 98.0828 93.6701 97.9502 93.8278 97.9409C93.8739 97.938 98.5255 97.6588 102.39 97.8001C106.228 97.938 108.276 97.8019 108.297 97.8007C108.373 97.7984 108.453 97.8217 108.511 97.8743C108.57 97.9269 108.605 98.0004 108.609 98.0793L109.165 110.72C109.169 110.799 109.14 110.877 109.084 110.935C109.029 110.993 108.953 111.025 108.873 111.025H102.194C99.6293 111.025 94.0929 111.164 94.0375 111.165C94.0357 111.165 94.0328 111.165 94.0305 111.165ZM94.1443 98.5085C94.1788 99.8272 94.3225 105.361 94.3225 107.081V110.574C95.5156 110.545 99.9686 110.441 102.194 110.441H108.569L108.038 98.3993C107.335 98.432 105.4 98.4939 102.369 98.3841C99.0756 98.2644 95.2066 98.4513 94.1443 98.5085Z" fill="black"/>
<path d="M103.486 99.1521C103.486 98.616 103.051 98.1809 102.515 98.1809C101.979 98.1809 101.544 98.616 101.544 99.1521C101.544 99.6882 101.978 100.123 102.515 100.123C103.051 100.123 103.486 99.6882 103.486 99.1521Z" fill="black"/>
<path d="M104.619 98.4852C104.619 97.9491 104.184 97.514 103.648 97.514C103.112 97.514 102.677 97.9485 102.677 98.4852C102.677 99.0213 103.111 99.4564 103.648 99.4564C104.184 99.4564 104.619 99.0219 104.619 98.4852Z" fill="black"/>
<path d="M101.317 100.367C101.237 100.367 101.158 100.335 101.1 100.271C100.992 100.151 101.002 99.9668 101.121 99.8588L101.788 99.259C101.907 99.1504 102.092 99.1603 102.2 99.2806C102.309 99.4003 102.299 99.5849 102.179 99.6929L101.513 100.293C101.457 100.342 101.387 100.367 101.317 100.367Z" fill="black"/>
<path d="M104.655 103.004H97.1221C96.961 103.004 96.8301 102.873 96.8301 102.712C96.8301 102.55 96.961 102.42 97.1221 102.42H104.655C104.816 102.42 104.947 102.55 104.947 102.712C104.947 102.873 104.816 103.004 104.655 103.004Z" fill="black"/>
<path d="M105.098 105.515H97.1221C96.961 105.515 96.8301 105.384 96.8301 105.223C96.8301 105.062 96.961 104.931 97.1221 104.931H105.098C105.259 104.931 105.39 105.062 105.39 105.223C105.39 105.384 105.259 105.515 105.098 105.515Z" fill="black"/>
<path d="M105.246 107.878H97.1221C96.961 107.878 96.8301 107.747 96.8301 107.586C96.8301 107.425 96.961 107.294 97.1221 107.294H105.246C105.407 107.294 105.538 107.425 105.538 107.586C105.538 107.747 105.407 107.878 105.246 107.878Z" fill="black"/>
</g>
<g opacity="0.3">
<path d="M208.993 108.65C208.917 108.65 208.844 108.621 208.789 108.567C208.733 108.512 208.701 108.437 208.701 108.358V104.566C208.701 102.626 208.518 95.7947 208.516 95.7258C208.512 95.5681 208.633 95.4356 208.791 95.4262C208.837 95.4233 213.488 95.1441 217.353 95.2855C221.191 95.4233 223.239 95.2872 223.26 95.2861C223.336 95.2837 223.416 95.3071 223.474 95.3596C223.533 95.4122 223.567 95.4858 223.572 95.5646L224.128 108.205C224.132 108.285 224.102 108.362 224.047 108.42C223.991 108.478 223.916 108.51 223.836 108.51H217.156C214.592 108.51 209.056 108.649 209 108.65C208.998 108.65 208.995 108.65 208.993 108.65ZM209.107 95.9933C209.142 97.3119 209.285 102.846 209.285 104.566V108.059C210.478 108.03 214.931 107.926 217.157 107.926H223.531L223.001 95.8841C222.297 95.9168 220.362 95.9787 217.332 95.8689C214.038 95.7498 210.169 95.936 209.107 95.9933Z" fill="black"/>
<path d="M218.449 96.6374C218.449 96.1013 218.014 95.6662 217.478 95.6662C216.941 95.6662 216.506 96.1013 216.506 96.6374C216.506 97.1735 216.941 97.6086 217.478 97.6086C218.014 97.608 218.449 97.1735 218.449 96.6374Z" fill="black"/>
<path d="M219.582 95.9705C219.582 95.4344 219.147 94.9993 218.61 94.9993C218.074 94.9993 217.639 95.4338 217.639 95.9705C217.639 96.5072 218.074 96.9417 218.61 96.9417C219.147 96.9417 219.582 96.5072 219.582 95.9705Z" fill="black"/>
<path d="M216.28 97.8527C216.2 97.8527 216.121 97.82 216.063 97.7564C215.954 97.6367 215.964 97.4521 216.084 97.3441L216.75 96.7443C216.87 96.6357 217.055 96.6462 217.163 96.7659C217.271 96.8856 217.261 97.0702 217.142 97.1782L216.475 97.778C216.42 97.8276 216.349 97.8527 216.28 97.8527Z" fill="black"/>
<path d="M219.617 100.489H212.085C211.924 100.489 211.793 100.358 211.793 100.197C211.793 100.036 211.924 99.9049 212.085 99.9049H219.617C219.779 99.9049 219.909 100.036 219.909 100.197C219.909 100.359 219.779 100.489 219.617 100.489Z" fill="black"/>
<path d="M220.061 103H212.085C211.924 103 211.793 102.869 211.793 102.708C211.793 102.547 211.924 102.416 212.085 102.416H220.061C220.222 102.416 220.353 102.547 220.353 102.708C220.353 102.869 220.222 103 220.061 103Z" fill="black"/>
<path d="M220.208 105.363H212.085C211.924 105.363 211.793 105.232 211.793 105.071C211.793 104.91 211.924 104.779 212.085 104.779H220.208C220.37 104.779 220.5 104.91 220.5 105.071C220.5 105.233 220.37 105.363 220.208 105.363Z" fill="black"/>
</g>
<g opacity="0.3">
<path d="M244.812 108.65C244.736 108.65 244.662 108.621 244.608 108.567C244.551 108.512 244.52 108.437 244.52 108.358V104.566C244.52 102.626 244.336 95.7947 244.335 95.7258C244.33 95.5681 244.451 95.4356 244.609 95.4262C244.655 95.4233 249.307 95.1441 253.171 95.2855C257.01 95.4233 259.057 95.2872 259.078 95.2861C259.155 95.2837 259.234 95.3071 259.292 95.3596C259.351 95.4122 259.386 95.4858 259.39 95.5646L259.947 108.205C259.95 108.285 259.921 108.362 259.865 108.42C259.81 108.478 259.734 108.51 259.655 108.51H252.975C250.41 108.51 244.874 108.649 244.819 108.65C244.817 108.65 244.814 108.65 244.812 108.65ZM244.926 95.9933C244.961 97.3119 245.104 102.846 245.104 104.566V108.059C246.297 108.03 250.75 107.926 252.975 107.926H259.35L258.819 95.8841C258.116 95.9168 256.181 95.9787 253.151 95.8689C249.857 95.7498 245.988 95.936 244.926 95.9933Z" fill="black"/>
<path d="M254.267 96.6374C254.267 96.1013 253.833 95.6662 253.296 95.6662C252.759 95.6662 252.325 96.1013 252.325 96.6374C252.325 97.1735 252.759 97.6086 253.296 97.6086C253.833 97.6086 254.267 97.1735 254.267 96.6374Z" fill="black"/>
<path d="M255.4 95.9705C255.4 95.4344 254.966 94.9993 254.429 94.9993C253.892 94.9993 253.458 95.4338 253.458 95.9705C253.458 96.5072 253.893 96.9417 254.429 96.9417C254.965 96.9417 255.4 96.5072 255.4 95.9705Z" fill="black"/>
<path d="M252.099 97.8527C252.019 97.8527 251.94 97.82 251.882 97.7564C251.774 97.6367 251.783 97.4521 251.903 97.3441L252.57 96.7443C252.689 96.6357 252.874 96.6462 252.982 96.7659C253.09 96.8856 253.081 97.0702 252.961 97.1782L252.294 97.778C252.238 97.8276 252.168 97.8527 252.099 97.8527Z" fill="black"/>
<path d="M255.436 100.489H247.904C247.743 100.489 247.612 100.358 247.612 100.197C247.612 100.036 247.743 99.9049 247.904 99.9049H255.436C255.598 99.9049 255.728 100.036 255.728 100.197C255.728 100.359 255.598 100.489 255.436 100.489Z" fill="black"/>
<path d="M255.879 103H247.903C247.742 103 247.611 102.869 247.611 102.708C247.611 102.547 247.742 102.416 247.903 102.416H255.879C256.04 102.416 256.171 102.547 256.171 102.708C256.171 102.869 256.041 103 255.879 103Z" fill="black"/>
<path d="M256.027 105.363H247.903C247.742 105.363 247.611 105.232 247.611 105.071C247.611 104.91 247.742 104.779 247.903 104.779H256.027C256.188 104.779 256.319 104.91 256.319 105.071C256.319 105.233 256.189 105.363 256.027 105.363Z" fill="black"/>
</g>
<g opacity="0.3">
<path d="M251.342 78.6327C251.266 78.6327 251.192 78.6029 251.138 78.5498C251.081 78.4949 251.05 78.4195 251.05 78.3407V74.5488C251.05 72.6087 250.867 65.7771 250.865 65.7082C250.861 65.5505 250.982 65.4179 251.139 65.4086C251.185 65.4057 255.837 65.1265 259.701 65.2678C263.54 65.4057 265.587 65.2702 265.608 65.2684C265.685 65.2661 265.764 65.2894 265.823 65.342C265.882 65.3946 265.916 65.4681 265.92 65.547L266.477 78.1877C266.48 78.2671 266.451 78.3448 266.396 78.4026C266.34 78.4604 266.264 78.4925 266.185 78.4925H259.505C256.941 78.4925 251.404 78.6315 251.349 78.6327C251.347 78.6327 251.344 78.6327 251.342 78.6327ZM251.456 65.9762C251.491 67.2949 251.635 72.8289 251.635 74.5488V78.0417C252.828 78.0125 257.281 77.9085 259.506 77.9085H265.881L265.35 65.867C264.647 65.8997 262.712 65.9616 259.681 65.8518C256.388 65.7321 252.519 65.9184 251.456 65.9762Z" fill="black"/>
<path d="M260.797 66.6198C260.797 66.0837 260.362 65.6486 259.826 65.6486C259.29 65.6486 258.855 66.0831 258.855 66.6198C258.855 67.1565 259.29 67.591 259.826 67.591C260.363 67.5904 260.797 67.1559 260.797 66.6198Z" fill="black"/>
<path d="M260.96 66.9247C261.496 66.9247 261.931 66.4898 261.931 65.9535C261.931 65.4171 261.496 64.9823 260.96 64.9823C260.423 64.9823 259.989 65.4171 259.989 65.9535C259.989 66.4898 260.423 66.9247 260.96 66.9247Z" fill="black"/>
<path d="M258.629 67.8351C258.549 67.8351 258.47 67.8024 258.412 67.7382C258.304 67.6184 258.314 67.4339 258.433 67.3259L259.1 66.7261C259.219 66.6175 259.404 66.628 259.512 66.7477C259.621 66.8674 259.611 67.052 259.491 67.16L258.825 67.7598C258.769 67.81 258.699 67.8351 258.629 67.8351Z" fill="black"/>
<path d="M261.967 70.4713H254.434C254.273 70.4713 254.142 70.3405 254.142 70.1793C254.142 70.0181 254.273 69.8873 254.434 69.8873H261.967C262.128 69.8873 262.259 70.0181 262.259 70.1793C262.259 70.341 262.128 70.4713 261.967 70.4713Z" fill="black"/>
<path d="M262.409 72.9825H254.434C254.272 72.9825 254.142 72.8517 254.142 72.6905C254.142 72.5293 254.272 72.3985 254.434 72.3985H262.409C262.57 72.3985 262.701 72.5293 262.701 72.6905C262.701 72.8517 262.571 72.9825 262.409 72.9825Z" fill="black"/>
<path d="M262.557 75.3459H254.434C254.272 75.3459 254.142 75.2151 254.142 75.0539C254.142 74.8927 254.272 74.7619 254.434 74.7619H262.557C262.718 74.7619 262.849 74.8927 262.849 75.0539C262.849 75.2151 262.719 75.3459 262.557 75.3459Z" fill="black"/>
</g>
<g opacity="0.3">
<path d="M206.569 75.5182C206.493 75.5182 206.419 75.4884 206.365 75.4353C206.308 75.3804 206.277 75.3051 206.277 75.2262V71.4343C206.277 69.4943 206.094 62.6626 206.092 62.5937C206.088 62.436 206.209 62.3035 206.366 62.2941C206.412 62.2912 211.064 62.0121 214.928 62.1534C218.767 62.2912 220.814 62.1551 220.836 62.154C220.912 62.1516 220.991 62.175 221.05 62.2275C221.109 62.2801 221.143 62.3537 221.147 62.4325L221.704 75.0732C221.707 75.1526 221.678 75.2303 221.623 75.2881C221.567 75.3459 221.491 75.3781 221.412 75.3781H214.732C212.168 75.3781 206.631 75.517 206.576 75.5182C206.574 75.5182 206.571 75.5182 206.569 75.5182ZM206.683 62.8612C206.717 64.1799 206.861 69.7138 206.861 71.4337V74.9266C208.054 74.8974 212.507 74.7935 214.733 74.7935H221.107L220.577 62.752C219.873 62.7847 217.938 62.8466 214.908 62.7368C211.614 62.6177 207.745 62.804 206.683 62.8612Z" fill="black"/>
<path d="M215.053 64.476C215.59 64.476 216.025 64.0411 216.025 63.5048C216.025 62.9684 215.59 62.5336 215.053 62.5336C214.517 62.5336 214.082 62.9684 214.082 63.5048C214.082 64.0411 214.517 64.476 215.053 64.476Z" fill="black"/>
<path d="M217.158 62.8384C217.158 62.3023 216.722 61.8672 216.186 61.8672C215.65 61.8672 215.215 62.3017 215.215 62.8384C215.215 63.3745 215.65 63.8096 216.186 63.8096C216.722 63.8096 217.158 63.3751 217.158 62.8384Z" fill="black"/>
<path d="M213.856 64.7201C213.776 64.7201 213.696 64.6874 213.639 64.6231C213.53 64.5034 213.54 64.3189 213.66 64.2108L214.326 63.6111C214.445 63.5024 214.631 63.5124 214.739 63.6327C214.847 63.7524 214.837 63.9369 214.718 64.045L214.051 64.6447C213.995 64.6956 213.925 64.7201 213.856 64.7201Z" fill="black"/>
<path d="M217.193 67.3568H209.661C209.5 67.3568 209.369 67.226 209.369 67.0648C209.369 66.9037 209.5 66.7728 209.661 66.7728H217.193C217.354 66.7728 217.485 66.9037 217.485 67.0648C217.485 67.226 217.354 67.3568 217.193 67.3568Z" fill="black"/>
<path d="M217.636 69.8674H209.661C209.5 69.8674 209.369 69.7366 209.369 69.5754C209.369 69.4142 209.5 69.2834 209.661 69.2834H217.636C217.798 69.2834 217.928 69.4142 217.928 69.5754C217.928 69.7372 217.798 69.8674 217.636 69.8674Z" fill="black"/>
<path d="M217.784 72.2309H209.661C209.5 72.2309 209.369 72.1001 209.369 71.9389C209.369 71.7777 209.5 71.6469 209.661 71.6469H217.784C217.945 71.6469 218.076 71.7777 218.076 71.9389C218.076 72.1006 217.945 72.2309 217.784 72.2309Z" fill="black"/>
</g>
<g opacity="0.3">
<path d="M42.8878 75.5305H35.2345V83.1838H42.8878V75.5305Z" stroke="black" stroke-width="0.584" stroke-miterlimit="10" stroke-linecap="round" stroke-linejoin="round"/>
<path d="M46.3953 79.3574H68.7176" stroke="black" stroke-width="0.584" stroke-miterlimit="10" stroke-linecap="round" stroke-linejoin="round"/>
<path d="M42.8878 87.2105H35.2345V94.8638H42.8878V87.2105Z" stroke="black" stroke-width="0.584" stroke-miterlimit="10" stroke-linecap="round" stroke-linejoin="round"/>
<path d="M46.3953 91.0374H68.7176" stroke="black" stroke-width="0.584" stroke-miterlimit="10" stroke-linecap="round" stroke-linejoin="round"/>
<path d="M42.8878 98.8905H35.2345V106.544H42.8878V98.8905Z" stroke="black" stroke-width="0.584" stroke-miterlimit="10" stroke-linecap="round" stroke-linejoin="round"/>
<path d="M46.3953 102.717H68.7176" stroke="black" stroke-width="0.584" stroke-miterlimit="10" stroke-linecap="round" stroke-linejoin="round"/>
<path d="M42.8878 110.571H35.2345V118.224H42.8878V110.571Z" stroke="black" stroke-width="0.584" stroke-miterlimit="10" stroke-linecap="round" stroke-linejoin="round"/>
<path d="M46.3953 114.397H68.7176" stroke="black" stroke-width="0.584" stroke-miterlimit="10" stroke-linecap="round" stroke-linejoin="round"/>
<path d="M37.1815 101.227L38.3495 104.342L46.5255 98.8905" stroke="black" stroke-width="0.584" stroke-miterlimit="10" stroke-linecap="round" stroke-linejoin="round"/>
<path d="M37.1815 77.4776L38.3495 80.592L46.5255 75.1416" stroke="black" stroke-width="0.584" stroke-miterlimit="10" stroke-linecap="round" stroke-linejoin="round"/>
</g>
<g opacity="0.3">
<path d="M78.6222 132.25H73.3895V137.483H78.6222V132.25Z" stroke="black" stroke-width="0.584" stroke-miterlimit="10" stroke-linecap="round" stroke-linejoin="round"/>
<path d="M81.0201 134.867H96.2817" stroke="black" stroke-width="0.584" stroke-miterlimit="10" stroke-linecap="round" stroke-linejoin="round"/>
<path d="M78.6222 140.236H73.3895V145.469H78.6222V140.236Z" stroke="black" stroke-width="0.584" stroke-miterlimit="10" stroke-linecap="round" stroke-linejoin="round"/>
<path d="M81.0201 142.852H96.2817" stroke="black" stroke-width="0.584" stroke-miterlimit="10" stroke-linecap="round" stroke-linejoin="round"/>
<path d="M78.6222 148.222H73.3895V153.454H78.6222V148.222Z" stroke="black" stroke-width="0.584" stroke-miterlimit="10" stroke-linecap="round" stroke-linejoin="round"/>
<path d="M81.0201 150.838H96.2817" stroke="black" stroke-width="0.584" stroke-miterlimit="10" stroke-linecap="round" stroke-linejoin="round"/>
<path d="M78.6222 156.207H73.3895V161.44H78.6222V156.207Z" stroke="black" stroke-width="0.584" stroke-miterlimit="10" stroke-linecap="round" stroke-linejoin="round"/>
<path d="M81.0201 158.823H96.2817" stroke="black" stroke-width="0.584" stroke-miterlimit="10" stroke-linecap="round" stroke-linejoin="round"/>
<path d="M74.7205 149.819L75.5188 151.948L81.1088 148.222" stroke="black" stroke-width="0.584" stroke-miterlimit="10" stroke-linecap="round" stroke-linejoin="round"/>
<path d="M74.7205 133.581L75.5188 135.71L81.1088 131.984" stroke="black" stroke-width="0.584" stroke-miterlimit="10" stroke-linecap="round" stroke-linejoin="round"/>
</g>
<path opacity="0.3" d="M101.681 55.32V52.3656L98.4034 51.8557C98.2416 51.2758 98.0144 50.7251 97.7248 50.2118L99.68 47.5359L97.5904 45.4463L94.9146 47.4021C94.4018 47.1125 93.8505 46.8853 93.2706 46.7235L92.7608 43.4461H89.8063L89.2965 46.7235C88.7166 46.8853 88.1653 47.1125 87.6525 47.4021L84.9766 45.4463L82.8871 47.5359L84.8423 50.2118C84.5526 50.7245 84.3255 51.2758 84.1637 51.8557L80.8863 52.3656V55.32L84.1637 55.8298C84.3255 56.4098 84.5526 56.9611 84.8423 57.4738L82.8871 60.1497L84.9766 62.2392L87.6525 60.2834C88.1653 60.5731 88.7166 60.8009 89.2965 60.962L89.8063 64.2394H92.7608L93.2706 60.962C93.8505 60.8003 94.4012 60.5731 94.9146 60.2834L97.5904 62.2392L99.68 60.1497L97.7248 57.4738C98.0144 56.9611 98.2422 56.4098 98.4034 55.8298L101.681 55.32ZM91.2844 58.5151C88.7043 58.5151 86.6124 56.4232 86.6124 53.8431C86.6124 51.263 88.7043 49.1711 91.2844 49.1711C93.8645 49.1711 95.9564 51.263 95.9564 53.8431C95.9564 56.4232 93.8645 58.5151 91.2844 58.5151Z" stroke="black" stroke-width="0.584" stroke-miterlimit="10" stroke-linecap="round" stroke-linejoin="round"/>
<path opacity="0.3" d="M82.344 64.3551V62.3776L80.1505 62.0366C80.0424 61.6488 79.8906 61.2797 79.6961 60.9363L81.0049 59.1458L79.6068 57.7477L77.8162 59.0564C77.4728 58.8625 77.1043 58.7101 76.716 58.6021L76.3749 56.4086H74.3975L74.0564 58.6021C73.6687 58.7101 73.2996 58.8625 72.9562 59.0564L71.1656 57.7477L69.7675 59.1458L71.0763 60.9363C70.8824 61.2797 70.7306 61.6482 70.6219 62.0366L68.429 62.3776V64.3551L70.6219 64.6961C70.73 65.0839 70.8824 65.453 71.0763 65.7964L69.7675 67.5869L71.1656 68.985L72.9562 67.6763C73.2996 67.8702 73.6681 68.0226 74.0564 68.1306L74.3975 70.3235H76.3749L76.716 68.1306C77.1038 68.0226 77.4728 67.8702 77.8162 67.6763L79.6068 68.985L81.0049 67.5869L79.6961 65.7964C79.89 65.453 80.0424 65.0845 80.1505 64.6961L82.344 64.3551ZM75.3862 66.4925C73.6593 66.4925 72.2595 65.0927 72.2595 63.3658C72.2595 61.6389 73.6593 60.239 75.3862 60.239C77.1131 60.239 78.5129 61.6389 78.5129 63.3658C78.5129 65.0927 77.1131 66.4925 75.3862 66.4925Z" stroke="black" stroke-width="0.584" stroke-miterlimit="10" stroke-linecap="round" stroke-linejoin="round"/>
<path opacity="0.3" d="M186.483 187.786L184.914 190.289L187.419 192.462C187.248 193.039 187.147 193.626 187.121 194.215L184.042 195.443L184.702 198.323L188.008 198.089C188.289 198.607 188.635 199.092 189.04 199.537L187.731 202.584L190.234 204.154L192.407 201.649C192.984 201.82 193.571 201.92 194.16 201.947L195.388 205.025L198.269 204.366L198.034 201.06C198.552 200.779 199.037 200.433 199.482 200.028L202.529 201.337L204.099 198.834L201.594 196.661C201.765 196.084 201.865 195.496 201.892 194.908L204.971 193.68L204.311 190.799L201.005 191.034C200.724 190.516 200.378 190.031 199.973 189.586L201.282 186.538L198.779 184.969L196.606 187.474C196.029 187.303 195.441 187.202 194.853 187.176L193.625 184.097L190.744 184.757L190.979 188.063C190.461 188.344 189.976 188.69 189.531 189.095L186.483 187.786ZM196.988 190.603C199.174 191.974 199.835 194.857 198.464 197.043C197.093 199.229 194.21 199.89 192.024 198.519C189.838 197.148 189.177 194.265 190.548 192.079C191.919 189.893 194.803 189.232 196.988 190.603Z" stroke="black" stroke-width="0.584" stroke-miterlimit="10" stroke-linecap="round" stroke-linejoin="round"/>
<path opacity="0.3" d="M207.666 190.406L206.615 192.081L208.292 193.535C208.177 193.921 208.11 194.314 208.092 194.708L206.032 195.53L206.474 197.457L208.686 197.3C208.873 197.647 209.105 197.971 209.376 198.269L208.5 200.309L210.175 201.359L211.629 199.682C212.015 199.797 212.409 199.864 212.803 199.882L213.624 201.942L215.551 201.5L215.394 199.288C215.741 199.1 216.066 198.869 216.364 198.597L218.403 199.473L219.454 197.798L217.777 196.344C217.892 195.958 217.959 195.565 217.977 195.171L220.037 194.349L219.595 192.422L217.383 192.579C217.195 192.232 216.964 191.908 216.693 191.61L217.569 189.571L215.894 188.52L214.44 190.197C214.054 190.082 213.66 190.015 213.266 189.997L212.445 187.937L210.517 188.379L210.674 190.591C210.328 190.779 210.003 191.01 209.705 191.282L207.666 190.406ZM214.696 192.291C216.159 193.208 216.601 195.138 215.683 196.601C214.766 198.064 212.836 198.506 211.374 197.588C209.911 196.671 209.469 194.741 210.386 193.278C211.303 191.815 213.233 191.373 214.696 192.291Z" stroke="black" stroke-width="0.584" stroke-miterlimit="10" stroke-linecap="round" stroke-linejoin="round"/>
<path d="M14.7338 177.9H64.0134V150.597H14.7338V177.9Z" fill="white" stroke="#263238" stroke-width="0.584" stroke-miterlimit="10" stroke-linecap="round" stroke-linejoin="round"/>
<path d="M16.2319 177.9H65.5116V150.597H16.2319V177.9Z" fill="white" stroke="#263238" stroke-width="0.584" stroke-miterlimit="10" stroke-linecap="round" stroke-linejoin="round"/>
<path d="M41.0733 154.815L32.8961 168.979H49.2505L41.0733 154.815Z" fill="#18A532" stroke="#263238" stroke-width="0.584" stroke-miterlimit="10" stroke-linecap="round" stroke-linejoin="round"/>
<path d="M281.56 199.653H232.28V226.956H281.56V199.653Z" fill="white" stroke="#263238" stroke-width="0.584" stroke-miterlimit="10" stroke-linecap="round" stroke-linejoin="round"/>
<path d="M280.061 199.653H230.782V226.956H280.061V199.653Z" fill="white" stroke="#263238" stroke-width="0.584" stroke-miterlimit="10" stroke-linecap="round" stroke-linejoin="round"/>
<path d="M254.539 204.84L257.152 210.134L262.994 210.983L258.767 215.104L259.765 220.923L254.539 218.175L249.314 220.923L250.312 215.104L246.084 210.983L251.926 210.134L254.539 204.84Z" fill="#18A532" stroke="#263238" stroke-width="0.584" stroke-miterlimit="10" stroke-linecap="round" stroke-linejoin="round"/>
<path d="M138.198 151.12C138.198 151.12 119.146 156.421 118.317 158.244C117.489 160.066 106.72 179.615 106.72 179.615L116.329 193.531L124.612 182.763L127.594 208.276C127.594 208.276 123.949 214.24 125.275 216.891C126.601 219.541 128.92 220.535 128.92 220.535H172.325C172.325 220.535 174.976 217.388 174.313 213.246C173.65 209.104 172.49 203.968 172.49 203.968L172.324 189.389L177.294 174.148L201.648 173.982L197.506 156.918C197.506 156.918 180.608 153.274 179.448 152.611C178.288 151.948 172.49 150.789 169.674 150.789C166.858 150.789 161.721 150.789 161.721 150.789L139.688 150.623L138.198 151.12Z" fill="#18A532" stroke="#263238" stroke-width="0.584" stroke-miterlimit="10" stroke-linecap="round" stroke-linejoin="round"/>
<path d="M121.073 169.091L124.613 182.763L117.986 170.835" stroke="#263238" stroke-width="0.584" stroke-miterlimit="10" stroke-linecap="round" stroke-linejoin="round"/>
<path d="M119.809 164.208L120.389 166.449" stroke="#263238" stroke-width="0.584" stroke-miterlimit="10" stroke-linecap="round" stroke-linejoin="round"/>
<path d="M114.656 177.202L111.856 175.639" stroke="#263238" stroke-width="0.584" stroke-miterlimit="10" stroke-linecap="round" stroke-linejoin="round"/>
<path d="M124.613 182.763L116.152 178.038" stroke="#263238" stroke-width="0.584" stroke-miterlimit="10" stroke-linecap="round" stroke-linejoin="round"/>
<path d="M180.941 160.563L177.296 174.148L184.585 160.563" stroke="#263238" stroke-width="0.584" stroke-miterlimit="10" stroke-linecap="round" stroke-linejoin="round"/>
<path d="M190.796 165.906L193.034 164.54" stroke="#263238" stroke-width="0.584" stroke-miterlimit="10" stroke-linecap="round" stroke-linejoin="round"/>
<path d="M177.296 174.148L188.367 167.388" stroke="#263238" stroke-width="0.584" stroke-miterlimit="10" stroke-linecap="round" stroke-linejoin="round"/>
<path d="M159.185 195.455L161.226 193.863" stroke="#263238" stroke-width="0.584" stroke-miterlimit="10" stroke-linecap="round" stroke-linejoin="round"/>
<path d="M136.376 213.246L157.606 196.686" stroke="#263238" stroke-width="0.584" stroke-miterlimit="10" stroke-linecap="round" stroke-linejoin="round"/>
<path d="M148.304 201.815L136.376 210.264" stroke="#263238" stroke-width="0.584" stroke-miterlimit="10" stroke-linecap="round" stroke-linejoin="round"/>
<path d="M142.174 139.192L141.18 152.28L150.955 163.214L159.403 152.777L156.753 139.855L142.174 139.192Z" fill="white" stroke="#263238" stroke-width="0.584" stroke-miterlimit="10" stroke-linecap="round" stroke-linejoin="round"/>
<path d="M156.753 139.855L142.174 139.192L141.924 142.491C144.103 145.017 148.463 150.551 150.228 150.992C151.708 151.362 155.51 147.118 157.616 144.06L156.753 139.855Z" fill="#263238" stroke="#263238" stroke-width="0.584" stroke-miterlimit="10" stroke-linecap="round" stroke-linejoin="round"/>
<path d="M139.523 144.328L148.635 155.924L142.34 168.019L136.542 151.286L139.523 144.328Z" fill="white" stroke="#263238" stroke-width="0.584" stroke-miterlimit="10" stroke-linecap="round" stroke-linejoin="round"/>
<path d="M160.894 144.328L151.783 155.924L158.078 168.019L163.877 151.286L160.894 144.328Z" fill="white" stroke="#263238" stroke-width="0.584" stroke-miterlimit="10" stroke-linecap="round" stroke-linejoin="round"/>
<path d="M136.384 122.128C136.384 122.128 134.562 118.317 132.905 121.3C131.248 124.282 136.55 130.246 137.213 130.246C137.875 130.246 136.384 122.128 136.384 122.128Z" fill="white" stroke="#263238" stroke-width="0.584" stroke-miterlimit="10" stroke-linecap="round" stroke-linejoin="round"/>
<path d="M162.725 122.128C162.725 122.128 164.548 118.317 166.204 121.3C167.86 124.282 162.559 130.246 161.897 130.246C161.234 130.246 162.725 122.128 162.725 122.128Z" fill="white" stroke="#263238" stroke-width="0.584" stroke-miterlimit="10" stroke-linecap="round" stroke-linejoin="round"/>
<path d="M135.24 109.537C135.37 112.251 136.337 131.382 137.875 135.382C139.532 139.689 147.152 146.647 150.797 146.316C154.442 145.985 160.903 137.867 161.731 134.885C162.476 132.204 163.087 113.322 163.202 109.537H135.24Z" fill="white" stroke="#263238" stroke-width="0.584" stroke-miterlimit="10" stroke-linecap="round" stroke-linejoin="round"/>
<path d="M139.532 124.779C139.532 124.779 141.851 127.264 146.158 124.613" stroke="#263238" stroke-width="0.584" stroke-miterlimit="10" stroke-linecap="round" stroke-linejoin="round"/>
<path d="M160.074 124.779C160.074 124.779 157.755 127.264 153.448 124.613" stroke="#263238" stroke-width="0.584" stroke-miterlimit="10" stroke-linecap="round" stroke-linejoin="round"/>
<path d="M147.815 131.24C147.815 131.24 149.472 134.388 153.117 131.24" stroke="#263238" stroke-width="0.584" stroke-miterlimit="10" stroke-linecap="round" stroke-linejoin="round"/>
<path d="M148.809 136.873H151.791" stroke="#263238" stroke-width="0.584" stroke-miterlimit="10" stroke-linecap="round" stroke-linejoin="round"/>
<path d="M138.538 120.306C138.538 120.306 139.697 119.146 145.661 120.14" stroke="#263238" stroke-width="1.168" stroke-miterlimit="10" stroke-linecap="round" stroke-linejoin="round"/>
<path d="M160.24 120.306C160.24 120.306 159.081 119.146 153.117 120.14" stroke="#263238" stroke-width="1.168" stroke-miterlimit="10" stroke-linecap="round" stroke-linejoin="round"/>
<path d="M201.484 156.421C201.484 156.421 219.376 118.815 221.198 118.649C223.02 118.483 225.174 120.968 224.512 124.282C223.85 127.595 214.737 159.403 212.749 166.03C210.762 172.657 208.111 175.307 205.957 174.479C203.803 173.651 201.484 156.421 201.484 156.421Z" fill="white" stroke="#263238" stroke-width="0.584" stroke-miterlimit="10" stroke-linecap="round" stroke-linejoin="round"/>
<path d="M99.9896 179.579C99.9896 179.579 109.139 200.356 111.261 199.988C113.383 199.62 119.688 193.315 119.98 192.088C120.271 190.86 116.06 184.024 111.818 180.892C107.577 177.76 106.207 176.652 105.555 176.765C104.902 176.878 101.047 178.891 99.9896 179.579Z" fill="white" stroke="#263238" stroke-width="0.584" stroke-miterlimit="10" stroke-linecap="round" stroke-linejoin="round"/>
<path d="M196.017 155.262C196.017 155.262 194.36 166.362 195.851 170.835C197.342 175.307 198.833 175.97 201.318 176.136C203.803 176.302 207.447 175.639 208.11 173.982C208.773 172.326 202.809 156.09 202.146 154.931C201.483 153.771 198.17 153.937 196.017 155.262Z" fill="white" stroke="#263238" stroke-width="0.584" stroke-miterlimit="10" stroke-linecap="round" stroke-linejoin="round"/>
<path d="M68.6901 174.579C66.7746 173.229 64.5612 172.1 64.5612 172.1C64.5612 172.1 61.9145 171.381 61.327 168.961C60.7395 166.541 64.139 165.784 64.139 165.784C66.3179 165.742 103.38 181.681 103.38 181.681C109.664 188.831 110.78 197.213 110.978 198.356C111.176 199.498 110.253 199.994 109.6 200.108C108.948 200.221 97.8171 195.278 94.4959 193.477C87.4441 189.655 70.7686 175.9 70.7686 175.9L68.6901 174.579Z" fill="white" stroke="#263238" stroke-width="0.584" stroke-miterlimit="10" stroke-linecap="round" stroke-linejoin="round"/>
<path d="M51.8984 179.944C51.8984 179.944 50.3146 182.378 48.6472 183.438C46.9799 184.499 44.7852 185.188 45.4878 185.683C46.1909 186.178 47.0173 186.497 48.7366 185.737C50.4559 184.976 52.4748 184.163 52.4748 184.163C52.4748 184.163 54.2682 179.379 51.8984 179.944Z" fill="white" stroke="#263238" stroke-width="0.584" stroke-miterlimit="10" stroke-linecap="round" stroke-linejoin="round"/>
<path d="M51.5783 180.771C51.5783 180.771 50.0844 185.504 48.1952 187.065C46.306 188.627 43.5904 189.869 45.3412 190.183C47.0926 190.496 48.187 189.69 50.551 188.2C52.9157 186.71 53.6322 185.506 53.2888 182.634C52.9466 179.762 52.5694 179.365 51.5783 180.771Z" fill="white" stroke="#263238" stroke-width="0.584" stroke-miterlimit="10" stroke-linecap="round" stroke-linejoin="round"/>
<path d="M51.7424 179.046C51.7424 179.046 51.6023 184.469 51.2431 186.846C50.8839 189.222 46.414 193.699 48.2892 193.837C50.1644 193.974 53.4816 189.08 54.2443 187.251C55.007 185.422 55.5542 185.018 54.969 183.423C54.3844 181.827 52.2055 177.268 51.7424 179.046Z" fill="white" stroke="#263238" stroke-width="0.584" stroke-miterlimit="10" stroke-linecap="round" stroke-linejoin="round"/>
<path d="M67.2846 198.737C70.2757 195.487 70.0659 190.428 66.816 187.437C63.5661 184.445 58.5069 184.655 55.5158 187.905C52.5248 191.155 52.7346 196.214 55.9844 199.205C59.2343 202.196 64.2936 201.987 67.2846 198.737Z" fill="#263238" stroke="#263238" stroke-width="0.584" stroke-miterlimit="10" stroke-linecap="round" stroke-linejoin="round"/>
<path d="M67.5846 167.198C67.5846 167.198 62.6439 164.506 60.3319 166.295C58.0192 168.085 52.8251 176.39 51.1117 178.075C49.3982 179.76 52.5991 183.988 53.6976 187.654C54.7961 191.321 53.9154 194.25 55.8105 193.614C57.7056 192.976 56.919 191.108 57.0451 187.383C57.1712 183.659 55.6756 180.37 55.7475 179.895C55.8193 179.419 59.5516 176.922 61.9799 177.58C64.4082 178.24 65.6182 179.881 65.4804 181.756C65.3426 183.631 63.9527 188.963 64.6616 190.383C65.3706 191.803 66.6723 192.194 67.4555 189.59C68.2386 186.986 70.3311 182.15 70.7685 180.223C71.2059 178.296 66.9264 169.627 66.9264 169.627" fill="white"/>
<path d="M67.5846 167.198C67.5846 167.198 62.6439 164.506 60.3319 166.295C58.0192 168.085 52.8251 176.39 51.1117 178.075C49.3982 179.76 52.5991 183.988 53.6976 187.654C54.7961 191.321 53.9154 194.25 55.8105 193.614C57.7056 192.976 56.919 191.108 57.0451 187.383C57.1712 183.659 55.6756 180.37 55.7475 179.895C55.8193 179.419 59.5516 176.922 61.9799 177.58C64.4082 178.24 65.6182 179.881 65.4804 181.756C65.3426 183.631 63.9527 188.963 64.6616 190.383C65.3706 191.803 66.6723 192.194 67.4555 189.59C68.2386 186.986 70.3311 182.15 70.7685 180.223C71.2059 178.296 66.9264 169.627 66.9264 169.627" stroke="#263238" stroke-width="0.584" stroke-miterlimit="10" stroke-linecap="round" stroke-linejoin="round"/>
<path d="M57.2262 200.137C54.934 198.731 53.4056 196.202 53.4056 193.316C53.4056 188.993 56.8349 185.471 61.1215 185.323" fill="#263238"/>
<path d="M57.2262 200.137C54.934 198.731 53.4056 196.202 53.4056 193.316C53.4056 188.993 56.8349 185.471 61.1215 185.323" stroke="#263238" stroke-width="0.584" stroke-miterlimit="10" stroke-linecap="round" stroke-linejoin="round"/>
<path d="M239.198 124.617C239.198 124.617 241.743 126.015 243.713 126.163C245.684 126.311 247.944 125.882 247.558 126.651C247.172 127.419 246.593 128.091 244.719 128.232C242.844 128.372 240.68 128.609 240.68 128.609C240.68 128.609 236.841 125.237 239.198 124.617Z" fill="white" stroke="#263238" stroke-width="0.584" stroke-miterlimit="10" stroke-linecap="round" stroke-linejoin="round"/>
<path d="M239.87 125.195C239.87 125.195 243.421 128.663 245.823 129.147C248.226 129.633 251.206 129.446 249.81 130.548C248.414 131.652 247.068 131.457 244.281 131.259C241.493 131.062 240.293 130.339 239.24 127.645C238.187 124.951 238.333 124.423 239.87 125.195Z" fill="white" stroke="#263238" stroke-width="0.584" stroke-miterlimit="10" stroke-linecap="round" stroke-linejoin="round"/>
<path d="M238.911 123.751C238.911 123.751 241.594 128.467 243.033 130.392C244.471 132.317 250.525 134.155 248.936 135.161C247.349 136.168 242.114 133.419 240.578 132.166C239.042 130.913 238.369 130.816 238.132 129.133C237.895 127.45 237.663 122.403 238.911 123.751Z" fill="white" stroke="#263238" stroke-width="0.584" stroke-miterlimit="10" stroke-linecap="round" stroke-linejoin="round"/>
<path d="M241.799 135.432H229.471V147.76H241.799V135.432Z" fill="#18A532" stroke="#263238" stroke-width="0.584" stroke-miterlimit="10" stroke-linecap="round" stroke-linejoin="round"/>
<path d="M219.352 120.783C219.352 120.783 222.437 116.078 225.321 116.563C228.204 117.049 236.703 121.92 239.01 122.597C241.316 123.275 240.489 128.513 241.251 132.263C242.013 136.014 244.173 138.181 242.201 138.514C240.23 138.847 240.041 136.827 238.172 133.603C236.303 130.379 236.07 126.774 235.782 126.389C235.494 126.004 231.025 125.563 229.195 127.29C227.365 129.017 227.073 131.036 228.079 132.623C229.086 134.211 232.828 138.256 232.874 139.843C232.919 141.429 231.955 142.389 230.036 140.462C228.117 138.536 223.989 135.26 222.694 133.767C221.399 132.275 221.08 122.613 221.08 122.613" fill="white"/>
<path d="M219.352 120.783C219.352 120.783 222.437 116.078 225.321 116.563C228.204 117.049 236.703 121.92 239.01 122.597C241.316 123.275 240.489 128.513 241.251 132.263C242.013 136.014 244.173 138.181 242.201 138.514C240.23 138.847 240.041 136.827 238.172 133.603C236.303 130.379 236.07 126.774 235.782 126.389C235.494 126.004 231.025 125.563 229.195 127.29C227.365 129.017 227.073 131.036 228.079 132.623C229.086 134.211 232.828 138.256 232.874 139.843C232.919 141.429 231.955 142.389 230.036 140.462C228.117 138.536 223.989 135.26 222.694 133.767C221.399 132.275 221.08 122.613 221.08 122.613" stroke="#263238" stroke-width="0.584" stroke-miterlimit="10" stroke-linecap="round" stroke-linejoin="round"/>
<path d="M235.662 135.433H241.799V141.661" fill="#18A532"/>
<path d="M235.662 135.433H241.799V141.661" stroke="#263238" stroke-width="0.584" stroke-miterlimit="10" stroke-linecap="round" stroke-linejoin="round"/>
<path d="M128.92 220.535L125.984 231.489L94.6477 230.137C94.6477 230.137 113.584 245.692 122.827 248.848C132.07 252.004 144.695 255.386 155.291 254.484C165.886 253.583 176.256 251.554 186.853 246.369C197.449 241.183 203.761 231.039 203.761 231.039H173.777L172.326 220.535H128.92Z" fill="#263238" stroke="#263238" stroke-width="0.584" stroke-miterlimit="10" stroke-linecap="round" stroke-linejoin="round"/>
<path d="M173.581 245.755C173.581 245.755 180.79 246.285 185.978 244.947C191.167 243.608 194.913 246.168 195.388 251.011C195.864 255.854 193.436 260.301 186.999 260.786C180.561 261.272 171.354 257.055 171.354 257.055C171.354 257.055 168.828 250.566 173.581 245.755Z" fill="white" stroke="#263238" stroke-width="0.584" stroke-miterlimit="10" stroke-linecap="round" stroke-linejoin="round"/>
<path d="M180.878 259.995C180.878 259.995 186.842 261.426 189.707 258.492C192.572 255.557 193.15 251.324 192.25 247.999C191.623 245.682 189.777 244.874 188.713 244.595C192.448 244.64 195.002 247.069 195.389 251.011C195.864 255.854 193.437 260.301 186.999 260.786C184.718 260.959 182.089 260.539 179.645 259.927L180.878 259.995Z" fill="white" stroke="#263238" stroke-width="0.584" stroke-miterlimit="10" stroke-linecap="round" stroke-linejoin="round"/>
<path d="M171.586 247.761C171.586 247.761 175.187 249.362 178.155 249.275C181.124 249.188 182.365 251.821 180.512 253.662C178.659 255.503 170.947 253.34 170.271 252.878C169.595 252.416 169.799 249.118 171.586 247.761Z" fill="white" stroke="#263238" stroke-width="0.584" stroke-miterlimit="10" stroke-linecap="round" stroke-linejoin="round"/>
<path d="M137.936 228.882C126.62 223.848 115.432 218.038 105.274 211.343C99.9037 207.804 94.5332 206.461 89.8945 210.245C85.2564 214.028 85.5005 222.328 89.2842 226.601C93.068 230.873 104.786 235.145 115.893 239.783C127 244.421 149.459 249.791 155.928 251.5C162.397 253.209 164.228 254.307 165.815 255.772C167.401 257.237 171.354 257.055 171.354 257.055C171.354 257.055 171.308 252.11 172.406 249.791C173.505 247.472 174.237 245.886 174.237 245.886C174.237 245.886 172.284 244.421 170.453 243.078C168.622 241.736 168.134 242.712 164.35 240.27C160.168 237.573 155.041 235.953 150.443 234.13C146.287 232.483 142.103 230.735 137.936 228.882Z" fill="#263238" stroke="#263238" stroke-width="0.584" stroke-miterlimit="10" stroke-linecap="round" stroke-linejoin="round"/>
<path d="M118.094 247.045C118.094 247.045 110.88 246.594 105.921 244.565C100.961 242.536 96.9032 244.565 95.7761 249.3C94.649 254.034 96.4524 258.768 102.765 260.121C109.077 261.473 118.771 258.543 118.771 258.543C118.771 258.543 122.152 252.456 118.094 247.045Z" fill="white" stroke="#263238" stroke-width="0.584" stroke-miterlimit="10" stroke-linecap="round" stroke-linejoin="round"/>
<path d="M108.936 260.166C108.936 260.166 102.833 260.776 100.392 257.481C97.9508 254.185 97.9508 249.913 99.2934 246.74C100.228 244.53 102.167 243.979 103.259 243.847C99.5527 243.386 96.6929 245.446 95.7754 249.3C94.6483 254.034 96.4517 258.768 102.764 260.121C105.001 260.6 107.663 260.54 110.167 260.265L108.936 260.166Z" fill="white" stroke="#263238" stroke-width="0.584" stroke-miterlimit="10" stroke-linecap="round" stroke-linejoin="round"/>
<path d="M119.799 249.303C119.799 249.303 116.015 250.402 113.086 249.913C110.156 249.425 108.57 251.866 110.156 253.941C111.743 256.016 119.677 254.918 120.409 254.552C121.142 254.185 121.386 250.89 119.799 249.303Z" stroke="#263238" stroke-width="0.584" stroke-miterlimit="10" stroke-linecap="round" stroke-linejoin="round"/>
<path d="M126.886 245.241C126.886 245.241 168.593 228.108 183.471 219.992C198.35 211.876 209.171 214.356 209.171 223.148C209.171 231.94 196.998 237.802 187.303 242.085C177.61 246.369 139.961 255.161 135.678 255.837C131.394 256.513 130.718 256.739 130.718 256.739C130.718 256.739 128.464 259.218 127.787 259.444C127.111 259.669 117.868 258.091 117.868 258.091C117.868 258.091 120.122 253.357 119.446 251.328C118.77 249.299 118.094 247.044 118.094 247.044C118.094 247.044 123.279 243.213 126.886 245.241Z" fill="#263238" stroke="#263238" stroke-width="0.584" stroke-miterlimit="10" stroke-linecap="round" stroke-linejoin="round"/>
<path d="M281.56 153.427H256.753V174.737H281.56V153.427Z" fill="#263238" stroke="#263238" stroke-width="0.584" stroke-miterlimit="10" stroke-linecap="round" stroke-linejoin="round"/>
<path d="M281.56 157.72H256.753V174.737H281.56V157.72Z" fill="#B0B0B0" stroke="#263238" stroke-width="0.584" stroke-miterlimit="10" stroke-linecap="round" stroke-linejoin="round"/>
<path d="M261.581 150.597H212.302V177.9H261.581V150.597Z" fill="white" stroke="#263238" stroke-width="0.584" stroke-miterlimit="10" stroke-linecap="round" stroke-linejoin="round"/>
<path d="M260.083 150.597H210.803V177.9H260.083V150.597Z" fill="white" stroke="#263238" stroke-width="0.584" stroke-miterlimit="10" stroke-linecap="round" stroke-linejoin="round"/>
<path d="M239.657 157.173H227.33V169.501H239.657V157.173Z" fill="#18A532" stroke="#263238" stroke-width="0.584" stroke-miterlimit="10" stroke-linecap="round" stroke-linejoin="round"/>
<path d="M14.7333 223.793H39.5399V202.483H14.7333L14.7333 223.793Z" fill="#263238" stroke="#263238" stroke-width="0.584" stroke-miterlimit="10" stroke-linecap="round" stroke-linejoin="round"/>
<path d="M14.7333 223.793H39.5399V206.776H14.7333L14.7333 223.793Z" fill="#B0B0B0" stroke="#263238" stroke-width="0.584" stroke-miterlimit="10" stroke-linecap="round" stroke-linejoin="round"/>
<path d="M34.7124 226.956H83.9921V199.653H34.7124V226.956Z" fill="white" stroke="#263238" stroke-width="0.584" stroke-miterlimit="10" stroke-linecap="round" stroke-linejoin="round"/>
<path d="M36.2106 226.956H85.4902V199.653H36.2106V226.956Z" fill="white" stroke="#263238" stroke-width="0.584" stroke-miterlimit="10" stroke-linecap="round" stroke-linejoin="round"/>
<path d="M67.4063 219.346C70.6086 216.401 70.8173 211.418 67.8726 208.216C64.9279 205.014 59.9447 204.805 56.7424 207.75C53.5401 210.694 53.3313 215.678 56.2761 218.88C59.2208 222.082 64.204 222.291 67.4063 219.346Z" fill="#18A532" stroke="#263238" stroke-width="0.584" stroke-miterlimit="10" stroke-linecap="round" stroke-linejoin="round"/>
</svg>
