<svg width="274" height="274" viewBox="0 0 274 274" fill="none" xmlns="http://www.w3.org/2000/svg">
<path d="M236.042 102.204C234.573 97.5265 232.749 92.96 230.385 88.5678C218.459 66.4055 197.547 49.6904 174.673 39.8133C156.516 31.9731 134.055 27.8729 114.787 34.9361C105.046 38.5069 95.8748 45.3634 90.6502 54.4723C83.8276 66.3672 84.4863 81.1276 79.0803 93.6285C74.6995 103.759 63.802 109.848 55.2631 116.069C41.9417 125.775 28.8215 137.26 24.2019 153.684C18.038 175.599 19.8623 201.662 32.3501 221.137C41.6634 235.66 57.6124 240.024 74.0682 240.324C89.5991 240.607 108.578 236.682 123.085 243.767C147.779 255.827 180.364 269.361 207.991 259.817C236.466 249.981 250.444 230.825 254.586 205.975C258.728 181.124 247.338 160.415 243.713 140.739C241.425 128.315 239.932 114.587 236.042 102.204Z" fill="#18A532"/>
<path opacity="0.8" d="M236.042 102.204C234.573 97.5265 232.749 92.96 230.385 88.5678C218.459 66.4055 197.547 49.6904 174.673 39.8133C156.516 31.9731 134.055 27.8729 114.787 34.9361C105.046 38.5069 95.8748 45.3634 90.6502 54.4723C83.8276 66.3672 84.4863 81.1276 79.0803 93.6285C74.6995 103.759 63.802 109.848 55.2631 116.069C41.9417 125.775 28.8215 137.26 24.2019 153.684C18.038 175.599 19.8623 201.662 32.3501 221.137C41.6634 235.66 57.6124 240.024 74.0682 240.324C89.5991 240.607 108.578 236.682 123.085 243.767C147.779 255.827 180.364 269.361 207.991 259.817C236.466 249.981 250.444 230.825 254.586 205.975C258.728 181.124 247.338 160.415 243.713 140.739C241.425 128.315 239.932 114.587 236.042 102.204Z" fill="white"/>
<path d="M28.2823 176.815C28.1409 175.231 28.1091 173.774 28.0915 172.482C28.0872 171.748 28.0981 171.084 28.1146 170.464C28.6817 170.001 30.945 168.11 31.5774 166.832C32.195 165.585 32.6317 163.819 31.9648 162.484C31.3116 161.177 29.706 160.544 28.4308 161.337C26.6607 162.438 26.5128 166.22 26.9879 168.043C27.029 168.2 27.9529 170.593 27.983 170.569C27.983 170.569 28.011 170.547 28.0176 170.541C27.9896 171.138 27.9666 171.779 27.9556 172.479C27.9452 173.772 27.9452 175.235 28.0526 176.828C28.0702 177.093 28.0915 177.368 28.1124 177.642C28.3091 177.943 28.422 178.13 28.422 178.13C28.3754 177.691 28.3184 177.238 28.2823 176.815Z" fill="#BABABA"/>
<path d="M22.5885 172.799C20.2096 173.19 19.9044 175.421 22.1216 176.843C24.0018 178.05 27.2125 178.135 28.1496 178.133C28.1353 177.967 28.1244 177.806 28.1118 177.642C27.2136 176.269 24.5399 172.479 22.5885 172.799Z" fill="#BABABA"/>
<path d="M69.9067 162.334C67.8073 162.266 65.5966 165.305 64.9922 167.07C64.9401 167.223 64.3993 169.708 64.4376 169.705C64.4376 169.705 64.4732 169.701 64.482 169.701C64.1291 170.178 63.7565 170.693 63.3608 171.265C62.6385 172.327 61.8324 173.534 61.0444 174.907C60.9551 175.062 60.8647 175.226 60.7748 175.384C60.7353 175.765 60.703 175.995 60.703 175.995C60.703 175.995 60.6307 175.939 60.514 175.845C59.8936 176.961 59.2733 178.162 58.7138 179.463C57.9904 181.139 57.3158 182.94 56.8621 184.89C56.8571 184.912 56.8544 184.935 56.8495 184.958C56.8045 184.343 56.621 182.629 56.5919 182.498C56.1831 180.661 54.3183 177.335 52.2271 177.108C50.7206 176.945 49.572 178.201 49.5852 179.654C49.5989 181.136 50.7996 182.531 51.9246 183.384C53.1927 184.346 56.5415 185.118 56.8084 185.179C56.3935 187.04 56.119 188.986 55.9502 190.973C55.8527 192.108 55.7891 193.255 55.7409 194.407C55.685 193.877 55.6307 193.403 55.6159 193.337C55.2071 191.5 53.3417 188.174 51.2511 187.947C49.7447 187.784 48.596 189.04 48.6092 190.492C48.6224 191.975 49.8236 193.37 50.9486 194.223C52.0901 195.089 54.932 195.804 55.6866 195.983C55.6729 196.426 55.6537 196.866 55.6411 197.309C55.5814 199.429 55.5315 201.546 55.4181 203.62C55.3786 204.351 55.3129 205.069 55.2499 205.787C55.1994 205.316 55.1534 204.92 55.1403 204.86C54.7315 203.024 52.8666 199.697 50.7754 199.471C49.269 199.308 48.1204 200.564 48.1335 202.016C48.1467 203.499 49.3479 204.894 50.4729 205.747C51.5618 206.572 54.1802 207.256 55.0761 207.474C55.0164 207.979 54.9528 208.481 54.8838 208.977C55.2022 209.067 55.5261 209.147 55.8554 209.213C55.9776 208.256 56.0746 207.288 56.1458 206.308C56.9267 206.526 59.71 207.265 61.0987 207.061C62.4807 206.859 64.1795 206.216 64.8722 204.917C65.5506 203.644 65.1161 201.977 63.7137 201.386C61.7678 200.565 58.597 202.585 57.3936 204.003C57.3186 204.092 56.5711 205.208 56.1721 205.83C56.2187 205.114 56.2691 204.4 56.2927 203.674C56.3612 201.578 56.365 199.453 56.3787 197.334C56.3826 196.684 56.3941 196.038 56.4034 195.39C56.6801 195.471 59.9709 196.419 61.5261 196.192C62.9082 195.989 64.607 195.347 65.2996 194.047C65.9781 192.775 65.5429 191.107 64.1412 190.516C62.1958 189.695 59.0245 191.715 57.8216 193.133C57.7312 193.24 56.6577 194.849 56.405 195.272C56.4259 193.846 56.4593 192.425 56.5497 191.027C56.6714 189.097 56.8977 187.212 57.2517 185.405C57.3805 185.443 60.811 186.448 62.4035 186.215C63.7855 186.013 65.4843 185.37 66.177 184.07C66.8554 182.798 66.4203 181.13 65.0185 180.539C63.0726 179.718 59.9018 181.738 58.6984 183.156C58.6036 183.268 57.4501 184.999 57.2632 185.328C57.2846 185.221 57.295 185.107 57.3175 185C57.7208 183.075 58.3532 181.265 59.0289 179.602C59.4196 178.634 59.8476 177.731 60.2843 176.863C60.9047 177.116 63.7537 178.238 65.2131 178.187C66.6115 178.138 68.3734 177.687 69.2058 176.474C70.0212 175.286 69.7708 173.584 68.4402 172.843C66.5929 171.815 63.2139 173.47 61.8604 174.746C61.787 174.815 61.1178 175.604 60.6383 176.186C60.8411 175.797 61.0439 175.392 61.2455 175.024C62.0001 173.639 62.7772 172.418 63.4748 171.343C63.8765 170.734 64.2513 170.193 64.6075 169.69C65.3407 169.622 68.2912 169.31 69.5296 168.605C70.738 167.917 72.0806 166.701 72.2543 165.231C72.4236 163.792 71.4191 162.383 69.9067 162.334Z" fill="#BABABA"/>
<path d="M41.088 207.575C41.2288 207.857 41.3691 208.139 41.5077 208.421C41.8245 208.315 42.1368 208.211 42.4432 208.112C42.087 207.406 41.7176 206.703 41.328 206.002C42.093 205.755 44.7968 204.841 45.8304 203.904C46.8595 202.97 47.9062 201.491 47.7615 200.013C47.6196 198.566 46.3411 197.4 44.8582 197.676C42.7999 198.058 41.2973 201.51 41.0869 203.37C41.0737 203.487 41.0726 204.841 41.0869 205.585C40.7307 204.956 40.3778 204.326 39.9969 203.701C38.8971 201.896 37.7287 200.103 36.5708 198.309C36.2157 197.759 35.8688 197.208 35.5192 196.657C35.7926 196.573 39.0308 195.555 40.1882 194.505C41.2173 193.572 42.264 192.092 42.1193 190.615C41.9774 189.168 40.6989 188.002 39.216 188.277C37.1577 188.659 35.6551 192.112 35.4447 193.972C35.4288 194.113 35.4304 196.061 35.4551 196.557C34.6857 195.343 33.93 194.127 33.2329 192.898C32.269 191.204 31.4163 189.491 30.7116 187.771C30.8387 187.732 34.2237 186.686 35.4096 185.61C36.4387 184.677 37.486 183.197 37.3407 181.72C37.1988 180.273 35.9203 179.107 34.4374 179.382C32.3792 179.764 30.8771 183.217 30.6661 185.077C30.6497 185.223 30.6524 187.319 30.6798 187.699C30.6382 187.597 30.5839 187.495 30.5434 187.393C29.8145 185.548 29.3383 183.674 28.9783 181.898C28.7673 180.866 28.6226 179.869 28.5037 178.896C29.1553 178.766 32.1249 178.141 33.3009 177.292C34.4281 176.478 35.6332 175.126 35.6507 173.644C35.6683 172.193 34.5229 170.895 33.0165 171.006C30.9253 171.158 29.0501 174.419 28.6363 176.241C28.6138 176.34 28.4966 177.375 28.422 178.13C28.422 178.13 28.3185 178.132 28.1502 178.133C28.2533 179.35 28.4007 180.63 28.6418 181.954C28.9695 183.766 29.4063 185.657 30.1071 187.551C30.1154 187.572 30.1263 187.594 30.134 187.615C29.7581 187.122 28.661 185.778 28.5656 185.684C27.2154 184.361 23.8413 182.587 21.9913 183.55C20.6585 184.244 20.4032 185.937 21.2148 187.154C22.0439 188.396 23.8041 188.91 25.2025 189.008C26.7797 189.119 29.9685 187.921 30.2222 187.825C30.9061 189.623 31.7533 191.415 32.7096 193.183C33.2549 194.194 33.8357 195.196 34.4309 196.193C34.0922 195.777 33.7864 195.408 33.7382 195.36C32.3879 194.037 29.0139 192.263 27.1638 193.226C25.8306 193.92 25.5757 195.613 26.3879 196.83C27.2164 198.072 28.9772 198.585 30.3757 198.683C31.7944 198.783 34.5344 197.817 35.2562 197.552C35.4885 197.932 35.7159 198.315 35.9494 198.694C37.07 200.515 38.1962 202.327 39.2467 204.137C39.6171 204.775 39.9585 205.416 40.3032 206.057C40.0018 205.687 39.7454 205.379 39.701 205.336C38.3507 204.013 34.9772 202.239 33.1266 203.202C31.7939 203.895 31.5385 205.589 32.3501 206.805C33.1792 208.048 34.9394 208.561 36.3379 208.659C37.6915 208.754 40.2287 207.886 41.088 207.575Z" fill="#BABABA"/>
<path d="M59.5467 168.177C57.4555 166.978 55.8094 168.515 56.6308 171.019C57.3344 173.164 59.8158 175.281 60.5139 175.845C60.6011 175.688 60.6877 175.538 60.7748 175.384C60.9463 173.718 61.2488 169.153 59.5467 168.177Z" fill="#BABABA"/>
<path d="M185.941 255.127C183.629 255.186 181.388 258.69 180.835 260.682C180.805 260.789 180.628 261.88 180.506 262.704C181.597 262.803 182.688 262.883 183.776 262.939C184.607 262.708 185.405 262.425 185.916 262.091C187.201 261.252 188.601 259.821 188.701 258.184C188.798 256.58 187.607 255.086 185.941 255.127Z" fill="#BABABA"/>
<path d="M165.984 224.109C163.322 224.12 162.599 226.501 164.77 228.44C166.611 230.083 170.099 230.736 171.121 230.898C171.135 230.714 171.15 230.536 171.166 230.356C170.425 228.701 168.169 224.1 165.984 224.109Z" fill="#BABABA"/>
<path d="M208.872 254.731C209.834 253.462 209.651 251.567 208.224 250.678C206.245 249.443 202.434 251.094 200.874 252.431C200.756 252.532 199.305 254.1 198.956 254.517C199.227 252.965 199.511 251.421 199.853 249.912C200.323 247.828 200.898 245.811 201.599 243.901C201.734 243.965 205.3 245.659 207.078 245.683C208.621 245.703 210.587 245.298 211.569 244.001C212.53 242.731 212.347 240.836 210.92 239.947C208.941 238.712 205.13 240.363 203.57 241.7C203.447 241.806 201.887 243.493 201.626 243.819C201.668 243.706 201.699 243.584 201.742 243.471C202.517 241.442 203.523 239.578 204.55 237.88C205.145 236.893 205.769 235.983 206.397 235.112C207.029 235.495 209.942 237.216 211.542 237.415C213.077 237.606 215.077 237.42 216.196 236.242C217.292 235.089 217.317 233.188 215.994 232.148C214.158 230.704 210.183 231.921 208.484 233.076C208.392 233.139 207.524 233.883 206.9 234.434C207.189 234.045 207.48 233.639 207.764 233.272C208.829 231.893 209.89 230.696 210.838 229.645C211.382 229.052 211.885 228.526 212.362 228.04C213.173 228.093 216.446 228.267 217.92 227.714C219.358 227.173 221.035 226.081 221.48 224.508C221.916 222.967 221.067 221.257 219.425 220.939C217.147 220.499 214.206 223.429 213.239 225.25C213.156 225.407 212.132 228.023 212.175 228.027C212.175 228.027 212.214 228.029 212.224 228.03C211.756 228.489 211.26 228.986 210.728 229.541C209.756 230.573 208.666 231.749 207.567 233.11C207.442 233.263 207.315 233.426 207.189 233.583C207.08 233.992 207.004 234.237 207.004 234.237C207.004 234.237 206.935 234.163 206.824 234.04C205.953 235.148 205.067 236.351 204.23 237.673C203.149 239.375 202.099 241.222 201.264 243.27C201.255 243.293 201.248 243.319 201.238 243.342C201.296 242.664 201.395 240.761 201.386 240.614C201.261 238.539 199.806 234.586 197.564 233.974C195.949 233.533 194.478 234.703 194.239 236.29C193.995 237.91 195.062 239.641 196.14 240.767C197.356 242.037 200.874 243.463 201.155 243.576C200.378 245.534 199.739 247.609 199.209 249.747C198.904 250.968 198.636 252.209 198.382 253.457C198.413 252.869 198.437 252.342 198.432 252.268C198.306 250.193 196.851 246.239 194.611 245.628C192.996 245.187 191.524 246.358 191.285 247.944C191.041 249.564 192.108 251.295 193.186 252.421C194.281 253.563 197.256 254.84 198.048 255.167C197.956 255.646 197.858 256.124 197.768 256.604C197.396 258.574 197.025 260.536 196.624 262.467C196.952 262.424 197.281 262.379 197.608 262.331C197.945 260.485 198.257 258.623 198.567 256.76C198.685 256.052 198.81 255.349 198.933 254.644C199.221 254.781 202.645 256.388 204.382 256.411C205.925 256.433 207.89 256.028 208.872 254.731Z" fill="#BABABA"/>
<path d="M207.107 225.509C205.035 223.837 202.971 225.226 203.431 228.1C203.824 230.563 206.162 233.305 206.826 234.041C206.948 233.886 207.069 233.736 207.191 233.584C207.667 231.797 208.793 226.87 207.107 225.509Z" fill="#BABABA"/>
<path d="M171.495 229.483C171.617 227.731 171.836 226.135 172.042 224.723C172.165 223.922 172.293 223.2 172.419 222.525C173.118 222.12 175.916 220.451 176.829 219.167C177.72 217.914 178.505 216.064 178.01 214.492C177.525 212.952 175.884 211.982 174.355 212.625C172.232 213.518 171.412 217.618 171.612 219.688C171.63 219.867 172.22 222.639 172.257 222.618C172.257 222.618 172.291 222.598 172.299 222.593C172.165 223.239 172.028 223.934 171.894 224.696C171.657 226.105 171.402 227.7 171.242 229.457C171.214 229.75 171.19 230.054 171.165 230.356C171.327 230.718 171.418 230.941 171.418 230.941C171.444 230.454 171.462 229.95 171.495 229.483Z" fill="#BABABA"/>
<path d="M172.18 259.111C171.18 259.445 170.588 260.293 170.458 261.244C173.287 261.801 176.122 262.243 178.95 262.549C177.687 260.871 174.351 258.389 172.18 259.111Z" fill="#BABABA"/>
<path d="M192.084 258.117C190.469 257.676 188.997 258.847 188.758 260.433C188.627 261.302 188.88 262.201 189.303 263.024C191.372 262.979 193.43 262.842 195.473 262.61C194.869 260.673 193.677 258.551 192.084 258.117Z" fill="#BABABA"/>
<path d="M179.588 260.852C178.703 258.692 177.741 256.532 176.79 254.373C176.499 253.711 176.217 253.049 175.931 252.387C176.244 252.342 179.954 251.798 181.399 250.854C182.685 250.015 184.085 248.584 184.184 246.947C184.281 245.344 183.09 243.849 181.425 243.891C179.113 243.949 176.872 247.454 176.318 249.446C176.276 249.596 175.938 251.722 175.879 252.267C175.251 250.81 174.639 249.351 174.092 247.889C173.336 245.874 172.704 243.856 172.236 241.857C172.382 241.837 176.256 241.285 177.737 240.319C179.023 239.48 180.422 238.049 180.522 236.412C180.62 234.808 179.428 233.314 177.762 233.355C175.45 233.413 173.21 236.918 172.656 238.91C172.612 239.067 172.25 241.354 172.214 241.774C172.187 241.655 172.145 241.534 172.119 241.415C171.645 239.276 171.452 237.148 171.369 235.148C171.319 233.986 171.335 232.873 171.375 231.791C172.108 231.763 175.457 231.598 176.888 230.877C178.259 230.187 179.809 228.922 180.087 227.308C180.359 225.728 179.336 224.113 177.673 223.97C175.365 223.772 172.752 227.002 171.982 228.918C171.94 229.022 171.632 230.13 171.419 230.941C171.419 230.941 171.306 230.926 171.122 230.897C171.023 232.242 170.96 233.664 170.992 235.151C171.034 237.185 171.18 239.324 171.615 241.512C171.62 241.536 171.628 241.562 171.633 241.586C171.309 240.983 170.346 239.326 170.259 239.207C169.016 237.528 165.645 235.005 163.459 235.733C161.884 236.258 161.311 238.06 161.984 239.529C162.672 241.028 164.502 241.895 166.011 242.246C167.712 242.641 171.4 241.891 171.693 241.83C172.126 243.911 172.737 246.013 173.472 248.108C173.891 249.306 174.35 250.501 174.825 251.693C174.528 251.18 174.259 250.723 174.214 250.663C172.971 248.985 169.601 246.461 167.415 247.189C165.84 247.714 165.266 249.516 165.94 250.985C166.627 252.485 168.458 253.352 169.967 253.702C171.497 254.058 174.655 253.482 175.488 253.318C175.675 253.774 175.856 254.23 176.046 254.685C176.951 256.867 177.863 259.04 178.693 261.198C178.87 261.658 179.035 262.117 179.197 262.575C179.563 262.614 179.929 262.65 180.295 262.684C180.066 262.073 179.838 261.463 179.588 260.852Z" fill="#BABABA"/>
<path d="M178.179 88.57L178.539 90.7351L180.948 90.9461L181.675 88.896C182.48 88.8237 183.257 88.6527 183.993 88.3941L185.512 89.9383L187.606 88.7294L187.031 86.647C187.637 86.1319 188.178 85.5428 188.64 84.894L190.767 85.2864L191.789 83.0949L190.12 81.7167C190.313 80.9643 190.416 80.1763 190.42 79.3647L192.403 78.461L191.984 76.08L189.796 75.9101C189.515 75.1708 189.146 74.476 188.701 73.837L189.829 71.9321L188.119 70.2224L186.199 71.3622C185.115 70.6263 183.872 70.1089 182.533 69.8662L181.978 67.6731H179.56L179.003 69.8804C178.243 70.0245 177.515 70.2591 176.829 70.5709L175.101 69.0749L173.12 70.4619L173.937 72.6007C173.406 73.1427 172.939 73.7471 172.548 74.4025L170.272 74.168L169.445 76.44L171.329 77.7185C171.242 78.2407 171.194 78.7761 171.194 79.3236C171.194 79.5521 171.205 79.7784 171.22 80.0031L169.237 81.11L169.863 83.4456L172.108 83.4166C172.44 84.1213 172.855 84.7789 173.34 85.3768L172.371 87.3896L174.223 88.9437L176.018 87.6581M186.066 76.3572C186.561 77.2329 186.843 78.2445 186.843 79.3225C186.843 82.6565 184.141 85.3592 180.807 85.3592C177.473 85.3592 174.77 82.6565 174.77 79.3225C174.77 75.9884 177.473 73.2857 180.807 73.2857C181.101 73.2857 181.391 73.3065 181.674 73.3476M183.715 74.031C184.181 74.288 184.61 74.6042 184.991 74.9708" stroke="black" stroke-width="0.548" stroke-miterlimit="10"/>
<path d="M183.89 212.001L184.25 214.167L186.658 214.378L187.385 212.328C188.19 212.255 188.967 212.084 189.703 211.826L191.222 213.37L193.316 212.161L192.741 210.079C193.347 209.563 193.887 208.974 194.35 208.326L196.477 208.718L197.499 206.526L195.831 205.149C196.023 204.396 196.126 203.608 196.13 202.796L198.114 201.893L197.694 199.511L195.506 199.342C195.226 198.602 194.856 197.907 194.411 197.269L195.539 195.364L193.829 193.654L191.909 194.794C190.825 194.058 189.582 193.54 188.243 193.298L187.688 191.105H185.27L184.713 193.312C183.953 193.457 183.225 193.691 182.539 194.002L180.811 192.506L178.831 193.893L179.647 196.032C179.117 196.574 178.65 197.179 178.258 197.834L175.982 197.6L175.155 199.872L177.04 201.15C176.952 201.672 176.904 202.208 176.904 202.755C176.904 202.984 176.915 203.21 176.93 203.435L174.947 204.542L175.573 206.877L177.818 206.848C178.15 207.553 178.565 208.21 179.05 208.808L178.081 210.821L179.934 212.375L181.728 211.09M191.776 199.789C192.271 200.664 192.554 201.676 192.554 202.753C192.554 206.087 189.851 208.79 186.517 208.79C183.183 208.79 180.48 206.087 180.48 202.753C180.48 199.419 183.183 196.717 186.517 196.717C186.812 196.717 187.101 196.738 187.384 196.779M189.426 197.463C189.892 197.72 190.32 198.036 190.701 198.402" stroke="black" stroke-width="0.548" stroke-miterlimit="10"/>
<path d="M195.621 62.6052L195.937 63.4343C195.778 63.5965 195.625 63.7642 195.478 63.9368M194.673 65.0339C194.63 65.1008 194.589 65.1682 194.549 65.2356L192.272 65.001L191.445 67.273L193.33 68.5515C193.242 69.0738 193.194 69.6092 193.194 70.1566C193.194 70.3851 193.205 70.6115 193.22 70.8361L191.238 71.9431L191.864 74.2787L194.108 74.2496C194.44 74.9544 194.855 75.612 195.341 76.2098L194.372 78.2232L196.224 79.7773L198.019 78.4917C198.692 78.8797 199.417 79.1882 200.181 79.4047L200.541 81.5698L202.949 81.7808L203.676 79.7307C204.481 79.6584 205.258 79.4874 205.994 79.2288L207.513 80.773L209.607 79.5641L209.032 77.4817C209.638 76.9666 210.179 76.3775 210.641 75.7281L212.768 76.1205L213.79 73.929L212.122 72.5514C212.314 71.799 212.418 71.0109 212.421 70.1994L214.404 69.2957L213.985 66.9147L211.797 66.7448C211.517 66.0055 211.147 65.3107 210.702 64.6717L211.83 62.7668L210.12 61.0571L208.2 62.1969C207.116 61.461 205.873 60.9436 204.534 60.7009L203.979 58.5078H201.561L201.004 60.7151C200.244 60.8598 199.516 61.0938 198.83 61.4056L197.102 59.9096L195.121 61.2966L195.371 61.9509M208.716 71.4011C208.632 71.8028 208.508 72.1897 208.349 72.558M207.897 73.4052C206.825 75.0815 204.946 76.1934 202.808 76.1934C199.474 76.1934 196.771 73.4906 196.771 70.1566C196.771 66.8226 199.474 64.1199 202.808 64.1199C206.142 64.1199 208.845 66.8226 208.845 70.1566C208.845 70.3046 208.84 70.4509 208.829 70.5961" stroke="black" stroke-width="0.548" stroke-miterlimit="10"/>
<path d="M51.0884 137.159L49.2779 140.922L52.7396 143.826L56.0939 141.424C57.3532 142.149 58.7073 142.726 60.1348 143.13L60.8072 147.176L65.3085 147.57L66.6659 143.739C68.1713 143.604 69.6229 143.284 70.9984 142.801L73.8387 145.687L77.7519 143.428L76.6773 139.536C77.8095 138.572 78.8194 137.472 79.6836 136.259L83.6594 136.992L85.5692 132.897L82.4505 130.322C82.8111 128.915 83.004 127.442 83.0105 125.925L86.7172 124.236L85.9325 119.786L81.8433 119.468C81.3183 118.087 80.6284 116.788 79.7971 115.593L81.9052 112.033L78.7098 108.838L75.121 110.968C73.095 109.593 70.7715 108.626 68.2693 108.172L67.232 104.073H62.7132L61.6731 108.198C60.2521 108.468 58.8909 108.906 57.6096 109.489L54.3792 106.693L50.6774 109.285L52.2031 113.283C51.2112 114.296 50.3382 115.425 49.6072 116.65L45.3531 116.212L43.8077 120.458L47.3297 122.847C47.1659 123.823 47.0754 124.824 47.0754 125.847C47.0754 126.274 47.0957 126.697 47.1248 127.116L43.4192 129.185L44.5886 133.55L48.7836 133.496C49.2521 134.49 49.8094 135.435 50.4456 136.32M61.2681 115.212C61.7547 115.039 62.2567 114.898 62.7713 114.793M65.5584 114.575C71.5513 114.843 76.3277 119.787 76.3277 125.846C76.3277 132.077 71.2762 137.128 65.0455 137.128C58.8142 137.128 53.7632 132.077 53.7632 125.846C53.7632 121.248 56.5136 117.293 60.4587 115.535" stroke="black" stroke-width="0.548" stroke-miterlimit="10"/>
<path d="M108.983 124.993L104.506 122.098" stroke="#263238" stroke-width="1.644" stroke-miterlimit="10" stroke-linecap="round" stroke-linejoin="round"/>
<path d="M116.773 116.29L115.611 115.323" stroke="#263238" stroke-width="1.644" stroke-miterlimit="10" stroke-linecap="round" stroke-linejoin="round"/>
<path d="M103.685 141.804L94.4072 139.485" stroke="#263238" stroke-width="1.644" stroke-miterlimit="10" stroke-linecap="round" stroke-linejoin="round"/>
<path d="M153.829 198.828C153.761 198.828 153.692 198.819 153.624 198.802C153.41 198.747 153.227 198.608 153.117 198.417C152.83 197.919 152.676 197.654 154.991 195.002C150.003 198.054 149.47 197.926 149.18 197.855C148.961 197.803 148.728 197.633 148.616 197.438C148.157 196.643 148.066 196.487 157.297 188.932C155.818 189.895 154.278 190.923 152.909 191.836C144.785 197.255 142.26 198.793 141.141 198.533C140.861 198.468 140.63 198.299 140.492 198.06C139.998 197.205 139.998 197.205 150.884 189.326C151.582 188.819 152.308 188.293 153.038 187.765C151.782 188.607 150.527 189.461 149.377 190.243C140.794 196.081 136.883 198.602 135.421 198.27C135.107 198.198 134.85 198.013 134.697 197.747C134.162 196.821 134.044 196.614 149.902 185.837L129.046 197.878C128.653 198.106 128.151 197.97 127.923 197.577C127.557 196.942 127.844 196.164 129.352 194.83C126.95 196.21 125.557 196.767 124.872 196.604C124.574 196.534 124.329 196.357 124.183 196.105C123.729 195.318 123.904 194.587 129.709 190.685C123.723 194.428 121.516 195.533 120.655 195.329C120.389 195.264 120.17 195.103 120.038 194.875C119.64 194.187 120.01 193.943 121.387 193.036C122.098 192.567 123.132 191.893 124.42 191.057C125.728 190.209 127.297 189.194 129.053 188.058C123.945 190.712 123.182 190.528 122.755 190.425C122.452 190.351 122.204 190.172 122.059 189.92C121.834 189.53 121.964 189.032 122.351 188.802C138.435 179.269 163.266 163.974 169.253 158.913C163.281 161.625 145.442 172.71 135.256 179.039C122.165 187.173 122.106 187.157 121.547 187.016C121.331 186.962 121.137 186.816 121.025 186.623C120.58 185.853 120.603 185.36 125.842 182.115C123.434 183.25 121.843 183.767 121.141 183.594C120.82 183.515 120.559 183.326 120.407 183.061C120.187 182.68 120.306 182.193 120.677 181.956C136.911 171.617 159.744 156.976 169.057 150.787C166.468 152.108 162.987 154.093 159.118 156.392C155.987 158.403 152.279 160.745 147.892 163.476C142.091 167.086 136.23 170.665 131.347 173.625C119.552 181.063 119.412 181.03 118.837 180.889C118.62 180.835 118.417 180.684 118.306 180.49C118.08 180.101 118.211 179.603 118.597 179.373C122.148 177.262 126.07 174.908 130.137 172.445C130.838 172.002 131.553 171.551 132.274 171.097C123.758 175.968 119.05 178.098 117.662 177.76C117.227 177.654 117.001 177.399 116.887 177.202C116.379 176.323 117.106 175.208 123.11 171.281C119.236 173.645 117.701 174.347 117.048 174.187C116.791 174.125 116.579 173.969 116.451 173.747C116.106 173.15 115.824 172.663 119.839 169.741C117.679 170.826 116.314 171.282 115.66 171.124C115.35 171.048 115.097 170.864 114.947 170.606C114.838 170.416 114.809 170.19 114.866 169.979C114.923 169.768 115.062 169.588 115.253 169.48C133.032 159.368 159.96 143.358 168.161 136.896C159.167 141.859 134.378 156.417 117.078 166.674C116.889 166.786 116.663 166.817 116.451 166.762C116.238 166.707 116.057 166.568 115.947 166.378C115.83 166.176 115.717 165.839 115.841 165.382C115.962 164.939 116.431 164.33 117.193 163.584C115.916 164.105 115.061 164.294 114.572 164.174C114.256 164.096 114 163.91 113.849 163.648C113.358 162.797 114.299 162.143 115.723 161.151C116.791 160.408 118.367 159.386 120.539 158.027C124.587 155.494 130.146 152.142 136.031 148.592C142.643 144.606 150.505 139.864 156.743 135.94C143.391 143.632 122.357 155.899 112.256 161.806C112.067 161.916 111.841 161.946 111.63 161.891C111.419 161.835 111.239 161.697 111.129 161.508C110.705 160.774 110.578 160.556 117.842 155.988C114.997 157.553 113.201 158.221 112.288 158.009C111.822 157.901 111.578 157.626 111.456 157.413C110.912 156.473 110.912 156.473 124.09 148.816C130.189 145.273 137.469 141.043 144.164 136.976C149.786 133.241 154.186 130.394 157.525 128.427C160.27 126.511 161.726 125.307 162.494 124.559C155.652 127.633 128.621 143.976 111.508 154.606C111.124 154.844 110.618 154.728 110.378 154.345C110.137 153.962 110.251 153.456 110.632 153.214C112.335 152.132 114.111 151.002 115.935 149.841C111.531 152.091 109.922 152.47 109.232 152.298C108.913 152.22 108.653 152.033 108.502 151.77C108.282 151.389 108.4 150.903 108.77 150.666C111.794 148.73 115.886 146.108 120.448 143.18C110.904 148.571 110.133 148.38 109.659 148.261C109.399 148.197 109.187 148.039 109.059 147.818C108.837 147.433 108.96 146.941 109.339 146.708C121.648 139.096 139.133 128.056 149.361 121.169C141.115 125.918 129.096 132.978 120.626 137.952C116.871 140.158 113.587 142.087 111.232 143.463C109.141 144.685 108.128 145.278 107.585 145.552C107.496 145.607 107.447 145.637 107.44 145.641L107.432 145.627C107.052 145.804 106.961 145.78 106.8 145.737C106.482 145.654 106.244 145.389 106.195 145.064C106.147 144.739 106.296 144.416 106.576 144.243C119.629 136.175 138.908 124.004 147.545 118.023C142.948 120.684 136.08 125.063 130.538 128.598C115.052 138.474 110.345 141.3 108.982 140.961C108.712 140.895 108.49 140.731 108.357 140.501C108.014 139.906 107.768 139.482 112.917 135.774C111.512 136.392 110.564 136.627 110.011 136.494C109.681 136.415 109.412 136.22 109.254 135.946C109.033 135.564 109.153 135.075 109.528 134.839C119.639 128.478 135.003 118.502 140.286 114.378C135.662 116.64 125.57 123.128 119.628 126.95C109.963 133.165 109.587 133.317 108.981 133.17C108.763 133.117 108.554 132.963 108.442 132.768C108.007 132.016 107.623 131.348 117.121 124.815C115.95 125.563 114.75 126.334 113.525 127.125C113.36 127.231 113.134 127.378 112.789 127.294C112.571 127.241 112.384 127.101 112.272 126.906C111.686 125.892 112.531 125.02 119.199 119.908C118.949 119.851 118.743 119.7 118.617 119.481C118.389 119.088 118.524 118.585 118.918 118.358C119.077 118.267 119.254 118.233 119.422 118.253C119.896 118.027 121.109 117.176 121.935 116.595C124.606 114.72 125.364 114.267 126.02 114.413C126.282 114.47 126.498 114.627 126.629 114.855C127.102 115.675 126.737 116.171 122.239 119.646C123.485 118.869 124.774 118.072 126.061 117.284C138.732 109.532 139.71 109.763 140.295 109.905C140.567 109.97 140.791 110.134 140.924 110.365C141.145 110.749 141.023 111.239 140.647 111.473C134.469 115.331 128.036 119.466 122.66 123.053C135.164 115.066 141.176 111.566 142.866 111.97C143.173 112.044 143.425 112.227 143.573 112.484C144.097 113.391 144.475 114.047 127.174 125.436C126.345 125.982 125.513 126.528 124.688 127.066C128.168 124.87 131.702 122.577 134.57 120.715C145.671 113.511 147.464 112.456 148.305 112.653C148.547 112.712 148.749 112.861 148.871 113.073C149.091 113.454 148.972 113.94 148.601 114.177C137.872 121.013 122.197 131.222 114.451 136.71C118.612 134.252 124.517 130.487 129.654 127.211C145.949 116.819 151.263 113.648 152.764 114.012C153.045 114.08 153.275 114.249 153.412 114.487C153.815 115.185 154.1 115.678 144.571 122.039C157.928 114.288 158.183 114.353 158.609 114.465C158.821 114.521 159.01 114.665 159.12 114.854C159.667 115.801 160.062 116.486 134.862 132.599C133.032 133.768 131.196 134.937 129.398 136.077C139.374 130.179 151.256 122.914 160.265 117.304C160.454 117.187 160.684 117.151 160.898 117.205C161.115 117.258 161.299 117.398 161.411 117.591C161.804 118.27 161.229 118.673 160.62 119.098C160.247 119.359 159.696 119.733 158.992 120.203C157.666 121.088 155.708 122.373 153.174 124.025C148.91 126.804 142.951 130.659 135.465 135.48C128.255 140.123 120.986 144.788 116.008 147.98C122.553 144.519 135.346 136.982 160.037 121.245C163.59 118.981 163.591 118.981 163.953 119.068C164.171 119.121 164.358 119.261 164.47 119.456C164.673 119.808 164.789 120.007 164.132 120.59L164.135 120.596C164.128 120.599 164.119 120.605 164.107 120.612C163.232 121.379 161.05 122.8 156.077 126.039C163.125 122.172 163.784 122.336 164.209 122.441C164.467 122.506 164.678 122.663 164.806 122.884C165.101 123.395 165.175 124.016 164.078 125.243C164.637 125.101 165.078 125.069 165.413 125.147C165.895 125.259 166.147 125.544 166.273 125.762C166.818 126.706 167.097 127.191 150.817 137.456C168.055 127.476 168.224 127.519 168.639 127.626C168.85 127.682 169.033 127.822 169.142 128.011C169.666 128.918 168.703 129.837 166.347 131.556C164.83 132.661 162.686 134.099 159.812 135.939C169.389 129.964 171.786 128.724 172.645 128.934C172.895 128.995 173.101 129.148 173.226 129.365C173.336 129.555 173.365 129.78 173.308 129.992C173.25 130.203 173.11 130.383 172.92 130.491C167.329 133.658 161.646 136.939 156.154 140.171C154.261 141.364 152.338 142.581 150.464 143.767C139.283 150.844 131.121 155.938 125.394 159.27C123.58 160.51 122.028 161.618 120.787 162.568C125.881 159.556 134.564 154.432 143.225 149.363C170.627 133.327 171.041 133.439 171.565 133.576C171.778 133.632 171.971 133.778 172.08 133.968C172.19 134.159 172.297 134.476 172.182 134.902C172.116 135.144 172.019 135.499 171.289 136.262C173.172 135.325 174.348 134.94 174.927 135.081C175.224 135.154 175.466 135.331 175.61 135.58C176.047 136.337 175.431 136.746 174.08 137.643C173.263 138.186 172.054 138.955 170.386 139.994C170.279 140.061 170.17 140.129 170.06 140.197C172.617 138.974 174.408 138.402 175.306 138.617C175.806 138.737 176.065 139.029 176.194 139.252C176.95 140.563 176.179 141.391 149.455 157.206C138.258 163.832 123.421 172.613 119.379 175.876C121.609 175.093 127.165 172.407 140.972 164.053C152.227 157.243 164.626 149.292 170.585 145.471C174.712 142.825 174.71 142.829 175.078 142.918C175.295 142.972 175.483 143.112 175.595 143.306C175.929 143.885 176.269 144.474 171.784 147.83C172.736 147.498 173.411 147.381 173.814 147.479C174.136 147.559 174.397 147.748 174.551 148.014C175.032 148.849 175.032 148.849 166.167 154.659C161.803 157.518 155.699 161.47 148.025 166.405C140.63 171.16 133.17 175.932 128.064 179.192C138.407 173.647 157.796 161.349 166.416 155.882C174.065 151.03 174.067 151.03 174.504 151.139C174.722 151.193 174.91 151.334 175.022 151.528C175.608 152.543 174.676 153.989 171.068 156.67C171.193 156.664 171.3 156.672 171.388 156.694C171.669 156.764 171.899 156.934 172.035 157.17C172.611 158.167 173.262 159.295 148.941 174.527C155.937 170.22 163.179 165.634 169.049 161.84C169.239 161.718 169.472 161.679 169.689 161.731C169.907 161.784 170.095 161.925 170.208 162.12C170.61 162.818 170.054 163.215 169.131 163.871C168.581 164.262 167.753 164.83 166.671 165.557C165.579 166.29 164.235 167.183 162.61 168.253C164.88 167.098 166.279 166.636 166.982 166.807C167.305 166.885 167.567 167.075 167.722 167.343C168.183 168.141 168.08 168.466 162.53 172.024C163.699 171.53 164.527 171.346 165.057 171.469C165.405 171.55 165.688 171.755 165.855 172.043C166.502 173.162 166.013 173.651 151.16 182.646C146.908 185.221 141.557 188.462 137.221 191.257L166.378 174.424C166.567 174.315 166.791 174.284 167.002 174.342C167.213 174.398 167.393 174.536 167.501 174.725C167.906 175.427 167.331 175.85 166.378 176.551C165.803 176.974 164.96 177.571 163.799 178.373C161.634 179.871 158.627 181.908 155.443 184.063C151.73 186.578 147.06 189.74 143.237 192.397C144.995 191.233 146.825 189.988 148.453 188.882C156.929 183.116 160.525 180.808 161.906 181.118C162.212 181.189 162.463 181.37 162.612 181.629C163.091 182.458 163.113 182.498 153.389 189.54C160.446 184.851 162.749 183.513 163.803 183.749C164.084 183.815 164.316 183.983 164.454 184.223C164.842 184.895 164.842 184.895 159.935 188.899C158.456 190.106 156.401 191.783 154.546 193.332C156.05 192.406 157.706 191.357 159.277 190.334C159.467 190.21 159.699 190.171 159.917 190.223C160.137 190.277 160.325 190.416 160.438 190.613C160.747 191.149 160.63 191.275 159.509 192.48C158.594 193.461 157.807 194.319 157.146 195.053C162.123 192.09 162.301 192.138 162.652 192.228C162.866 192.283 163.054 192.425 163.164 192.617C163.391 193.01 163.257 193.513 162.863 193.739C162.78 193.788 162.692 193.82 162.602 193.836C161.875 194.164 157.823 196.552 154.257 198.709C154.125 198.788 153.978 198.828 153.829 198.828ZM161.739 193.442C161.836 193.608 161.97 193.715 162.11 193.777C161.959 193.709 161.829 193.595 161.739 193.442ZM141.506 185.076C136.773 188.028 132.113 190.99 129.075 193.097C132.381 191.133 137.179 187.955 141.506 185.076ZM161.885 170.485C156.509 173.466 147.814 179.067 141.202 183.336C143.638 181.817 146.409 180.102 149.561 178.161C153.9 175.489 158.573 172.611 161.885 170.485ZM161.536 174.308C158.61 175.867 154.181 178.682 149.856 181.516C150.006 181.425 150.156 181.334 150.308 181.242C154.349 178.795 158.735 176.139 161.536 174.308ZM134.587 162.013C130.992 164.274 127.66 166.407 124.934 168.216C127.782 166.423 131.15 164.245 134.587 162.013ZM173.601 140.456C172.013 140.988 168.642 142.542 161.513 146.822C154.446 151.065 145.744 156.721 138.068 161.713C134.721 163.888 131.902 165.714 129.524 167.24C134.14 164.402 140.34 160.692 148.617 155.794C158.725 149.812 169.987 143.146 173.601 140.456ZM168.452 156.538C168.074 156.779 167.688 157.024 167.296 157.273C163.457 159.707 159.819 162.004 156.395 164.15C160.97 161.4 165.291 158.712 168.452 156.538ZM132.111 152.879C127.084 155.918 122.202 158.892 118.99 160.954C120.609 160.115 122.608 158.991 124.848 157.683C127.018 156.187 129.477 154.566 132.111 152.879ZM144.981 138.403C142.877 139.803 140.8 141.196 138.861 142.497C135.007 145.082 131.621 147.342 128.665 149.278C129.621 148.689 130.626 148.069 131.685 147.416C142.78 140.576 158.807 130.695 163.516 127.108C162.308 127.599 160.554 128.547 158.459 129.785C156.586 131.094 154.202 132.667 151.183 134.571C149.213 135.815 147.126 137.101 144.981 138.403Z" fill="#18A532"/>
<g opacity="0.4">
<path d="M153.829 198.828C153.761 198.828 153.692 198.819 153.624 198.802C153.41 198.747 153.227 198.608 153.117 198.417C152.83 197.919 152.676 197.654 154.991 195.002C150.003 198.054 149.47 197.926 149.18 197.855C148.961 197.803 148.728 197.633 148.616 197.438C148.157 196.643 148.066 196.487 157.297 188.932C155.818 189.895 154.278 190.923 152.909 191.836C144.785 197.255 142.26 198.793 141.141 198.533C140.861 198.468 140.63 198.299 140.492 198.06C139.998 197.205 139.998 197.205 150.884 189.326C151.582 188.819 152.308 188.293 153.038 187.765C151.782 188.607 150.527 189.461 149.377 190.243C140.794 196.081 136.883 198.602 135.421 198.27C135.107 198.198 134.85 198.013 134.697 197.747C134.162 196.821 134.044 196.614 149.902 185.837L129.046 197.878C128.653 198.106 128.151 197.97 127.923 197.577C127.557 196.942 127.844 196.164 129.352 194.83C126.95 196.21 125.557 196.767 124.872 196.604C124.574 196.534 124.329 196.357 124.183 196.105C123.729 195.318 123.904 194.587 129.709 190.685C123.723 194.428 121.516 195.533 120.655 195.329C120.389 195.264 120.17 195.103 120.038 194.875C119.64 194.187 120.01 193.943 121.387 193.036C122.098 192.567 123.132 191.893 124.42 191.057C125.728 190.209 127.297 189.194 129.053 188.058C123.945 190.712 123.182 190.528 122.755 190.425C122.452 190.351 122.204 190.172 122.059 189.92C121.834 189.53 121.964 189.032 122.351 188.802C138.435 179.269 163.266 163.974 169.253 158.913C163.281 161.625 145.442 172.71 135.256 179.039C122.165 187.173 122.106 187.157 121.547 187.016C121.331 186.962 121.137 186.816 121.025 186.623C120.58 185.853 120.603 185.36 125.842 182.115C123.434 183.25 121.843 183.767 121.141 183.594C120.82 183.515 120.559 183.326 120.407 183.061C120.187 182.68 120.306 182.193 120.677 181.956C136.911 171.617 159.744 156.976 169.057 150.787C166.468 152.108 162.987 154.093 159.118 156.392C155.987 158.403 152.279 160.745 147.892 163.476C142.091 167.086 136.23 170.665 131.347 173.625C119.552 181.063 119.412 181.03 118.837 180.889C118.62 180.835 118.417 180.684 118.306 180.49C118.08 180.101 118.211 179.603 118.597 179.373C122.148 177.262 126.07 174.908 130.137 172.445C130.838 172.002 131.553 171.551 132.274 171.097C123.758 175.968 119.05 178.098 117.662 177.76C117.227 177.654 117.001 177.399 116.887 177.202C116.379 176.323 117.106 175.208 123.11 171.281C119.236 173.645 117.701 174.347 117.048 174.187C116.791 174.125 116.579 173.969 116.451 173.747C116.106 173.15 115.824 172.663 119.839 169.741C117.679 170.826 116.314 171.282 115.66 171.124C115.35 171.048 115.097 170.864 114.947 170.606C114.838 170.416 114.809 170.19 114.866 169.979C114.923 169.768 115.062 169.588 115.253 169.48C133.032 159.368 159.96 143.358 168.161 136.896C159.167 141.859 134.378 156.417 117.078 166.674C116.889 166.786 116.663 166.817 116.451 166.762C116.238 166.707 116.057 166.568 115.947 166.378C115.83 166.176 115.717 165.839 115.841 165.382C115.962 164.939 116.431 164.33 117.193 163.584C115.916 164.105 115.061 164.294 114.572 164.174C114.256 164.096 114 163.91 113.849 163.648C113.358 162.797 114.299 162.143 115.723 161.151C116.791 160.408 118.367 159.386 120.539 158.027C124.587 155.494 130.146 152.142 136.031 148.592C142.643 144.606 150.505 139.864 156.743 135.94C143.391 143.632 122.357 155.899 112.256 161.806C112.067 161.916 111.841 161.946 111.63 161.891C111.419 161.835 111.239 161.697 111.129 161.508C110.705 160.774 110.578 160.556 117.842 155.988C114.997 157.553 113.201 158.221 112.288 158.009C111.822 157.901 111.578 157.626 111.456 157.413C110.912 156.473 110.912 156.473 124.09 148.816C130.189 145.273 137.469 141.043 144.164 136.976C149.786 133.241 154.186 130.394 157.525 128.427C160.27 126.511 161.726 125.307 162.494 124.559C155.652 127.633 128.621 143.976 111.508 154.606C111.124 154.844 110.618 154.728 110.378 154.345C110.137 153.962 110.251 153.456 110.632 153.214C112.335 152.132 114.111 151.002 115.935 149.841C111.531 152.091 109.922 152.47 109.232 152.298C108.913 152.22 108.653 152.033 108.502 151.77C108.282 151.389 108.4 150.903 108.77 150.666C111.794 148.73 115.886 146.108 120.448 143.18C110.904 148.571 110.133 148.38 109.659 148.261C109.399 148.197 109.187 148.039 109.059 147.818C108.837 147.433 108.96 146.941 109.339 146.708C121.648 139.096 139.133 128.056 149.361 121.169C141.115 125.918 129.096 132.978 120.626 137.952C116.871 140.158 113.587 142.087 111.232 143.463C109.141 144.685 108.128 145.278 107.585 145.552C107.496 145.607 107.447 145.637 107.44 145.641L107.432 145.627C107.052 145.804 106.961 145.78 106.8 145.737C106.482 145.654 106.244 145.389 106.195 145.064C106.147 144.739 106.296 144.416 106.576 144.243C119.629 136.175 138.908 124.004 147.545 118.023C142.948 120.684 136.08 125.063 130.538 128.598C115.052 138.474 110.345 141.3 108.982 140.961C108.712 140.895 108.49 140.731 108.357 140.501C108.014 139.906 107.768 139.482 112.917 135.774C111.512 136.392 110.564 136.627 110.011 136.494C109.681 136.415 109.412 136.22 109.254 135.946C109.033 135.564 109.153 135.075 109.528 134.839C119.639 128.478 135.003 118.502 140.286 114.378C135.662 116.64 125.57 123.128 119.628 126.95C109.963 133.165 109.587 133.317 108.981 133.17C108.763 133.117 108.554 132.963 108.442 132.768C108.007 132.016 107.623 131.348 117.121 124.815C115.95 125.563 114.75 126.334 113.525 127.125C113.36 127.231 113.134 127.378 112.789 127.294C112.571 127.241 112.384 127.101 112.272 126.906C111.686 125.892 112.531 125.02 119.199 119.908C118.949 119.851 118.743 119.7 118.617 119.481C118.389 119.088 118.524 118.585 118.918 118.358C119.077 118.267 119.254 118.233 119.422 118.253C119.896 118.027 121.109 117.176 121.935 116.595C124.606 114.72 125.364 114.267 126.02 114.413C126.282 114.47 126.498 114.627 126.629 114.855C127.102 115.675 126.737 116.171 122.239 119.646C123.485 118.869 124.774 118.072 126.061 117.284C138.732 109.532 139.71 109.763 140.295 109.905C140.567 109.97 140.791 110.134 140.924 110.365C141.145 110.749 141.023 111.239 140.647 111.473C134.469 115.331 128.036 119.466 122.66 123.053C135.164 115.066 141.176 111.566 142.866 111.97C143.173 112.044 143.425 112.227 143.573 112.484C144.097 113.391 144.475 114.047 127.174 125.436C126.345 125.982 125.513 126.528 124.688 127.066C128.168 124.87 131.702 122.577 134.57 120.715C145.671 113.511 147.464 112.456 148.305 112.653C148.547 112.712 148.749 112.861 148.871 113.073C149.091 113.454 148.972 113.94 148.601 114.177C137.872 121.013 122.197 131.222 114.451 136.71C118.612 134.252 124.517 130.487 129.654 127.211C145.949 116.819 151.263 113.648 152.764 114.012C153.045 114.08 153.275 114.249 153.412 114.487C153.815 115.185 154.1 115.678 144.571 122.039C157.928 114.288 158.183 114.353 158.609 114.465C158.821 114.521 159.01 114.665 159.12 114.854C159.667 115.801 160.062 116.486 134.862 132.599C133.032 133.768 131.196 134.937 129.398 136.077C139.374 130.179 151.256 122.914 160.265 117.304C160.454 117.187 160.684 117.151 160.898 117.205C161.115 117.258 161.299 117.398 161.411 117.591C161.804 118.27 161.229 118.673 160.62 119.098C160.247 119.359 159.696 119.733 158.992 120.203C157.666 121.088 155.708 122.373 153.174 124.025C148.91 126.804 142.951 130.659 135.465 135.48C128.255 140.123 120.986 144.788 116.008 147.98C122.553 144.519 135.346 136.982 160.037 121.245C163.59 118.981 163.591 118.981 163.953 119.068C164.171 119.121 164.358 119.261 164.47 119.456C164.673 119.808 164.789 120.007 164.132 120.59L164.135 120.596C164.128 120.599 164.119 120.605 164.107 120.612C163.232 121.379 161.05 122.8 156.077 126.039C163.125 122.172 163.784 122.336 164.209 122.441C164.467 122.506 164.678 122.663 164.806 122.884C165.101 123.395 165.175 124.016 164.078 125.243C164.637 125.101 165.078 125.069 165.413 125.147C165.895 125.259 166.147 125.544 166.273 125.762C166.818 126.706 167.097 127.191 150.817 137.456C168.055 127.476 168.224 127.519 168.639 127.626C168.85 127.682 169.033 127.822 169.142 128.011C169.666 128.918 168.703 129.837 166.347 131.556C164.83 132.661 162.686 134.099 159.812 135.939C169.389 129.964 171.786 128.724 172.645 128.934C172.895 128.995 173.101 129.148 173.226 129.365C173.336 129.555 173.365 129.78 173.308 129.992C173.25 130.203 173.11 130.383 172.92 130.491C167.329 133.658 161.646 136.939 156.154 140.171C154.261 141.364 152.338 142.581 150.464 143.767C139.283 150.844 131.121 155.938 125.394 159.27C123.58 160.51 122.028 161.618 120.787 162.568C125.881 159.556 134.564 154.432 143.225 149.363C170.627 133.327 171.041 133.439 171.565 133.576C171.778 133.632 171.971 133.778 172.08 133.968C172.19 134.159 172.297 134.476 172.182 134.902C172.116 135.144 172.019 135.499 171.289 136.262C173.172 135.325 174.348 134.94 174.927 135.081C175.224 135.154 175.466 135.331 175.61 135.58C176.047 136.337 175.431 136.746 174.08 137.643C173.263 138.186 172.054 138.955 170.386 139.994C170.279 140.061 170.17 140.129 170.06 140.197C172.617 138.974 174.408 138.402 175.306 138.617C175.806 138.737 176.065 139.029 176.194 139.252C176.95 140.563 176.179 141.391 149.455 157.206C138.258 163.832 123.421 172.613 119.379 175.876C121.609 175.093 127.165 172.407 140.972 164.053C152.227 157.243 164.626 149.292 170.585 145.471C174.712 142.825 174.71 142.829 175.078 142.918C175.295 142.972 175.483 143.112 175.595 143.306C175.929 143.885 176.269 144.474 171.784 147.83C172.736 147.498 173.411 147.381 173.814 147.479C174.136 147.559 174.397 147.748 174.551 148.014C175.032 148.849 175.032 148.849 166.167 154.659C161.803 157.518 155.699 161.47 148.025 166.405C140.63 171.16 133.17 175.932 128.064 179.192C138.407 173.647 157.796 161.349 166.416 155.882C174.065 151.03 174.067 151.03 174.504 151.139C174.722 151.193 174.91 151.334 175.022 151.528C175.608 152.543 174.676 153.989 171.068 156.67C171.193 156.664 171.3 156.672 171.388 156.694C171.669 156.764 171.899 156.934 172.035 157.17C172.611 158.167 173.262 159.295 148.941 174.527C155.937 170.22 163.179 165.634 169.049 161.84C169.239 161.718 169.472 161.679 169.689 161.731C169.907 161.784 170.095 161.925 170.208 162.12C170.61 162.818 170.054 163.215 169.131 163.871C168.581 164.262 167.753 164.83 166.671 165.557C165.579 166.29 164.235 167.183 162.61 168.253C164.88 167.098 166.279 166.636 166.982 166.807C167.305 166.885 167.567 167.075 167.722 167.343C168.183 168.141 168.08 168.466 162.53 172.024C163.699 171.53 164.527 171.346 165.057 171.469C165.405 171.55 165.688 171.755 165.855 172.043C166.502 173.162 166.013 173.651 151.16 182.646C146.908 185.221 141.557 188.462 137.221 191.257L166.378 174.424C166.567 174.315 166.791 174.284 167.002 174.342C167.213 174.398 167.393 174.536 167.501 174.725C167.906 175.427 167.331 175.85 166.378 176.551C165.803 176.974 164.96 177.571 163.799 178.373C161.634 179.871 158.627 181.908 155.443 184.063C151.73 186.578 147.06 189.74 143.237 192.397C144.995 191.233 146.825 189.988 148.453 188.882C156.929 183.116 160.525 180.808 161.906 181.118C162.212 181.189 162.463 181.37 162.612 181.629C163.091 182.458 163.113 182.498 153.389 189.54C160.446 184.851 162.749 183.513 163.803 183.749C164.084 183.815 164.316 183.983 164.454 184.223C164.842 184.895 164.842 184.895 159.935 188.899C158.456 190.106 156.401 191.783 154.546 193.332C156.05 192.406 157.706 191.357 159.277 190.334C159.467 190.21 159.699 190.171 159.917 190.223C160.137 190.277 160.325 190.416 160.438 190.613C160.747 191.149 160.63 191.275 159.509 192.48C158.594 193.461 157.807 194.319 157.146 195.053C162.123 192.09 162.301 192.138 162.652 192.228C162.866 192.283 163.054 192.425 163.164 192.617C163.391 193.01 163.257 193.513 162.863 193.739C162.78 193.788 162.692 193.82 162.602 193.836C161.875 194.164 157.823 196.552 154.257 198.709C154.125 198.788 153.978 198.828 153.829 198.828ZM161.739 193.442C161.836 193.608 161.97 193.715 162.11 193.777C161.959 193.709 161.829 193.595 161.739 193.442ZM141.506 185.076C136.773 188.028 132.113 190.99 129.075 193.097C132.381 191.133 137.179 187.955 141.506 185.076ZM161.885 170.485C156.509 173.466 147.814 179.067 141.202 183.336C143.638 181.817 146.409 180.102 149.561 178.161C153.9 175.489 158.573 172.611 161.885 170.485ZM161.536 174.308C158.61 175.867 154.181 178.682 149.856 181.516C150.006 181.425 150.156 181.334 150.308 181.242C154.349 178.795 158.735 176.139 161.536 174.308ZM134.587 162.013C130.992 164.274 127.66 166.407 124.934 168.216C127.782 166.423 131.15 164.245 134.587 162.013ZM173.601 140.456C172.013 140.988 168.642 142.542 161.513 146.822C154.446 151.065 145.744 156.721 138.068 161.713C134.721 163.888 131.902 165.714 129.524 167.24C134.14 164.402 140.34 160.692 148.617 155.794C158.725 149.812 169.987 143.146 173.601 140.456ZM168.452 156.538C168.074 156.779 167.688 157.024 167.296 157.273C163.457 159.707 159.819 162.004 156.395 164.15C160.97 161.4 165.291 158.712 168.452 156.538ZM132.111 152.879C127.084 155.918 122.202 158.892 118.99 160.954C120.609 160.115 122.608 158.991 124.848 157.683C127.018 156.187 129.477 154.566 132.111 152.879ZM144.981 138.403C142.877 139.803 140.8 141.196 138.861 142.497C135.007 145.082 131.621 147.342 128.665 149.278C129.621 148.689 130.626 148.069 131.685 147.416C142.78 140.576 158.807 130.695 163.516 127.108C162.308 127.599 160.554 128.547 158.459 129.785C156.586 131.094 154.202 132.667 151.183 134.571C149.213 135.815 147.126 137.101 144.981 138.403Z" fill="white"/>
</g>
<path d="M142.188 110.997V110.989C142.125 110.989 142.062 110.992 141.999 110.992C141.94 110.991 141.88 110.989 141.821 110.989V110.996C121.954 111.363 106.972 126.564 106.972 145.27C106.972 151.059 108.409 156.512 110.943 161.294C112.06 163.895 114.688 170.271 117.319 178.512C119.746 186.119 121.018 193.77 121.018 194.926C121.018 195.038 121.015 195.155 121.012 195.278C120.965 196.728 122.122 197.932 123.573 197.932H123.76H139.106H139.293H143.443H143.63H158.977H159.164C160.614 197.932 161.771 196.728 161.725 195.278C161.721 195.156 161.719 195.038 161.719 194.926C161.719 193.77 162.99 186.118 165.418 178.512C168.047 170.271 170.676 163.895 171.794 161.294C174.327 156.511 175.764 151.059 175.764 145.27C175.764 126.573 160.795 111.376 142.188 110.997Z" stroke="#263238" stroke-width="1.096" stroke-miterlimit="10" stroke-linecap="round" stroke-linejoin="round"/>
<path d="M154.197 116.502C153.215 116.061 152.195 115.665 151.147 115.336" stroke="#263238" stroke-width="1.644" stroke-miterlimit="10" stroke-linecap="round" stroke-linejoin="round"/>
<path d="M165.614 125.2C165.614 125.2 162.819 120.762 156.678 117.744" stroke="#263238" stroke-width="1.644" stroke-miterlimit="10" stroke-linecap="round" stroke-linejoin="round"/>
<path d="M139.106 182.412V164.813C139.106 164.813 140.458 156.242 136.001 156.242C131.544 156.242 131.887 160.699 137.03 165.499C142.173 170.3 150.058 165.842 151.087 162.07C152.115 158.299 149.373 156.585 147.658 159.671C145.944 162.757 147.658 197.728 147.658 197.728" stroke="#263238" stroke-width="1.644" stroke-miterlimit="10" stroke-linecap="round" stroke-linejoin="round"/>
<path d="M129.574 102.093L131.472 108.059" stroke="#263238" stroke-width="1.644" stroke-miterlimit="10" stroke-linecap="round" stroke-linejoin="round"/>
<path d="M176.032 115.11L169.795 119.991" stroke="#263238" stroke-width="1.644" stroke-miterlimit="10" stroke-linecap="round" stroke-linejoin="round"/>
<path d="M152.891 97.7342L150.541 108.059" stroke="#263238" stroke-width="1.644" stroke-miterlimit="10" stroke-linecap="round" stroke-linejoin="round"/>
<path d="M160.166 202.691H122.58C122.098 202.691 121.708 202.301 121.708 201.819V201.391C121.708 200.909 122.098 200.518 122.58 200.518H160.166C160.648 200.518 161.038 200.909 161.038 201.391V201.819C161.039 202.301 160.648 202.691 160.166 202.691Z" fill="#263238" stroke="#263238" stroke-width="0.548" stroke-miterlimit="10" stroke-linecap="round" stroke-linejoin="round"/>
<path d="M160.166 207.59H122.58C122.098 207.59 121.708 207.199 121.708 206.717V206.289C121.708 205.807 122.098 205.416 122.58 205.416H160.166C160.648 205.416 161.039 205.807 161.039 206.289V206.717C161.039 207.199 160.648 207.59 160.166 207.59Z" fill="#263238" stroke="#263238" stroke-width="0.548" stroke-miterlimit="10" stroke-linecap="round" stroke-linejoin="round"/>
<path d="M160.166 212.488H122.58C122.098 212.488 121.708 212.097 121.708 211.615V211.187C121.708 210.705 122.098 210.314 122.58 210.314H160.166C160.648 210.314 161.039 210.705 161.039 211.187V211.615C161.039 212.097 160.648 212.488 160.166 212.488Z" fill="#263238" stroke="#263238" stroke-width="0.548" stroke-miterlimit="10" stroke-linecap="round" stroke-linejoin="round"/>
<path d="M142.524 215.1H140.412H123.224L128.777 222.748C129.746 224.082 131.294 224.871 132.942 224.871H140.412H142.524H149.919C151.572 224.871 153.124 224.077 154.092 222.737L159.607 215.1H142.524V215.1Z" fill="#263238" stroke="#263238" stroke-width="0.548" stroke-miterlimit="10" stroke-linecap="round" stroke-linejoin="round"/>
<path d="M183.959 133.154C183.959 133.154 180.449 136.982 177.578 138.896C174.707 140.81 172.705 143.341 175.345 144.639C176.929 145.417 179.174 144.32 179.174 144.32C179.174 144.32 175.664 145.277 175.026 148.467C174.388 151.657 181.407 150.381 181.407 150.381C181.407 150.381 176.302 153.89 177.897 155.166C179.492 156.442 182.682 155.485 184.278 155.485C185.873 155.485 193.848 150.381 195.763 150.381C197.677 150.381 201.505 154.528 201.505 157.718C201.505 160.909 206.61 160.589 207.248 150.699C207.885 140.81 205.333 132.515 201.186 129.963C197.039 127.411 183.959 133.154 183.959 133.154Z" fill="white" stroke="#263238" stroke-width="0.548" stroke-miterlimit="10" stroke-linecap="round"/>
<path d="M182.045 144.001L194.777 139.243C194.777 139.243 200.365 138.028 204.376 144.639" stroke="#263238" stroke-width="0.548" stroke-miterlimit="10" stroke-linecap="round"/>
<path d="M184.278 147.829L195.763 145.915C195.763 145.915 200.867 145.596 204.057 151.657" stroke="#263238" stroke-width="0.548" stroke-miterlimit="10" stroke-linecap="round"/>
<path d="M198.315 155.486L189.701 157.4L194.806 177.818C194.806 177.818 199.272 186.751 200.548 190.579C201.825 194.407 214.904 207.169 214.904 207.169L230.218 192.493C230.218 192.493 223.199 184.199 222.88 182.285C222.561 180.37 221.285 158.038 221.285 154.848C221.285 151.658 214.904 144.001 214.904 144.001C214.904 144.001 212.285 140.246 211.01 133.866C209.733 127.486 203.874 124.863 200.683 125.182C197.493 125.501 188.744 126.455 185.235 129.007C181.726 131.559 178.535 134.749 181.727 135.707C187.025 137.294 195.696 130.232 199.88 135.113C201.794 137.346 204.057 147.191 204.376 148.467C204.377 148.467 202.781 154.528 198.315 155.486Z" fill="white" stroke="#263238" stroke-width="0.548" stroke-miterlimit="10" stroke-linecap="round"/>
<path d="M166.19 125.833C166.387 125.622 166.715 125.583 166.959 125.753L168.266 126.661C168.534 126.848 168.6 127.217 168.414 127.485C168.228 127.753 167.858 127.819 167.59 127.632L166.284 126.724C166.016 126.538 165.949 126.169 166.136 125.901C166.152 125.877 166.17 125.854 166.19 125.833Z" fill="#263238" stroke="#263238" stroke-width="0.548" stroke-miterlimit="10" stroke-linecap="round"/>
<path d="M167.691 126.886C168.142 126.404 168.891 126.313 169.449 126.701L173.535 128.81L213.668 155.211C215.107 156.211 215.463 158.188 214.462 159.627C213.462 161.068 211.484 161.421 210.046 160.421L171.093 131.685L167.905 128.92C167.292 128.494 167.141 127.652 167.567 127.038C167.605 126.984 167.647 126.933 167.691 126.886Z" fill="#18A532" stroke="#263238" stroke-width="0.548" stroke-miterlimit="10" stroke-linecap="round"/>
<path d="M213.669 155.211L202.087 147.592C200.245 148.192 198.923 149.8 198.923 151.695C198.923 151.883 198.94 152.066 198.966 152.248L210.046 160.422C211.485 161.422 213.463 161.069 214.463 159.627C215.463 158.188 215.107 156.211 213.669 155.211Z" fill="#263238" stroke="#263238" stroke-width="0.548" stroke-miterlimit="10" stroke-linecap="round"/>
<path d="M200.548 190.579C197.039 185.474 192.573 172.394 190.658 169.842C188.744 167.29 183.612 161.645 181.698 155.903C179.784 150.16 178.536 145.595 178.536 140.81C178.536 136.025 182.647 135.197 185.837 140.302C189.028 145.406 192.892 153.252 192.892 153.252C192.892 153.252 195.444 156.442 200.548 155.485" fill="white"/>
<path d="M200.548 190.579C197.039 185.474 192.573 172.394 190.658 169.842C188.744 167.29 183.612 161.645 181.698 155.903C179.784 150.16 178.536 145.595 178.536 140.81C178.536 136.025 182.647 135.197 185.837 140.302C189.028 145.406 192.892 153.252 192.892 153.252C192.892 153.252 195.444 156.442 200.548 155.485" stroke="#263238" stroke-width="0.548" stroke-miterlimit="10" stroke-linecap="round"/>
<path d="M182.535 138.811L183.601 140.943C183.601 140.943 183.359 140.943 181.658 141.915C179.957 142.887 179.174 144.319 179.174 144.319C179.174 144.319 177.527 139.728 178.985 138.271C179.422 137.834 179.882 137.637 180.31 137.575C181.23 137.444 182.119 137.98 182.535 138.811Z" fill="white" stroke="#263238" stroke-width="0.548" stroke-miterlimit="10" stroke-linecap="round"/>
<path d="M226.89 185.967C226.89 185.967 218.441 188.47 214.06 192.852C209.68 197.232 205.924 202.239 205.924 202.239L213.747 211.314C213.747 211.314 220.319 203.804 224.7 200.362C229.08 196.92 234.087 194.103 234.087 194.103L226.89 185.967Z" fill="white" stroke="#263238" stroke-width="0.548" stroke-miterlimit="10" stroke-linecap="round"/>
<path d="M234.713 251.993L209.993 212.252C209.993 212.252 216.251 202.865 221.571 198.171C226.89 193.477 233.775 192.225 233.775 192.225L264.684 221.889" fill="#263238"/>
<path d="M234.713 251.993L209.993 212.252C209.993 212.252 216.251 202.865 221.571 198.171C226.89 193.477 233.775 192.225 233.775 192.225L264.684 221.889" stroke="#263238" stroke-width="0.548" stroke-miterlimit="10" stroke-linecap="round"/>
<path d="M187.089 150.423C187.256 150.401 187.429 150.381 187.607 150.363" stroke="#263238" stroke-width="0.548" stroke-miterlimit="10" stroke-linecap="round"/>
<path d="M182.314 153.071C182.314 153.071 182.605 151.325 186.116 150.588" stroke="#263238" stroke-width="0.548" stroke-miterlimit="10" stroke-linecap="round"/>
<path d="M186.13 151.84C186.13 151.84 185.884 152.579 183.422 153.564" stroke="#263238" stroke-width="0.548" stroke-miterlimit="10" stroke-linecap="round"/>
<path d="M186.027 149.499C186.027 149.499 183.892 149.819 182.611 150.887" stroke="#263238" stroke-width="0.548" stroke-miterlimit="10" stroke-linecap="round"/>
<path d="M108.919 94.9947C108.919 94.9947 114.096 95.415 117.37 96.5066C120.643 97.5982 123.87 97.6246 123.274 94.7443C122.916 93.0164 120.672 91.9182 120.672 91.9182C120.672 91.9182 123.582 94.1009 126.492 92.6465C129.402 91.1916 124.086 86.4344 124.086 86.4344C124.086 86.4344 129.99 88.3096 130.018 86.2672C130.046 84.2249 127.332 82.2937 126.353 81.0344C125.374 79.7751 116.448 76.6126 115.274 75.1012C114.099 73.5904 115.023 68.0221 117.541 66.0636C120.059 64.105 116.674 60.2718 108.475 65.8389C100.276 71.406 95.2951 78.5125 95.8261 83.3535C96.3571 88.1946 108.919 94.9947 108.919 94.9947Z" fill="white" stroke="#263238" stroke-width="0.548" stroke-miterlimit="10" stroke-linecap="round"/>
<path d="M118.657 89.8473L107.085 82.7162C107.085 82.7162 102.696 79.0507 105.452 71.8264" stroke="#263238" stroke-width="0.548" stroke-miterlimit="10" stroke-linecap="round"/>
<path d="M120.309 85.7346L111.747 77.8434C111.747 77.8434 108.362 74.0096 111.189 67.7701" stroke="#263238" stroke-width="0.548" stroke-miterlimit="10" stroke-linecap="round"/>
<path d="M117.736 69.9533L124.535 75.578L137.519 59.0147C137.519 59.0147 145.905 55.2472 148.113 51.8698C150.322 48.4925 152.204 30.3159 152.204 30.3159L131.192 27.4236C131.192 27.4236 129.048 38.0756 127.745 39.5141C126.443 40.9526 105.65 50.2538 103.132 52.2123C100.613 54.1709 98.4861 63.9078 98.4861 63.9078C98.4861 63.9078 96.9741 69.5642 94.0922 75.3977C89.295 85.1077 90.1499 84.3635 92.3605 86.6865C94.5706 89.0089 99.9454 93.7376 104.115 94.941C108.284 96.1444 113.468 100.453 112.305 95.1898C111.111 89.7893 99.4083 87.5227 100.693 81.2246C101.281 78.3426 107.663 70.5123 108.475 69.4771C108.474 69.4765 114.239 67.0149 117.736 69.9533Z" fill="white" stroke="#263238" stroke-width="0.548" stroke-miterlimit="10" stroke-linecap="round"/>
<path d="M114.049 113.516C113.761 113.49 113.529 113.256 113.513 112.959L113.428 111.37C113.41 111.043 113.661 110.765 113.987 110.748C114.313 110.729 114.591 110.98 114.609 111.306L114.694 112.896C114.711 113.222 114.461 113.501 114.135 113.518C114.106 113.519 114.077 113.519 114.049 113.516Z" fill="#263238" stroke="#263238" stroke-width="0.548" stroke-miterlimit="10" stroke-linecap="round"/>
<path d="M113.957 111.685C113.3 111.624 112.768 111.089 112.732 110.411L111.889 105.89L108.093 58.0021C108 56.2523 109.342 54.7579 111.093 54.6642C112.845 54.5688 114.337 55.9136 114.431 57.6634L115.658 106.052L115.432 110.266C115.472 111.012 114.9 111.649 114.154 111.689C114.088 111.692 114.022 111.69 113.957 111.685Z" fill="#18A532" stroke="#263238" stroke-width="0.548" stroke-miterlimit="10" stroke-linecap="round"/>
<path d="M108.094 58.002L109.189 71.8209C110.794 72.907 112.874 72.9629 114.369 71.8001C114.518 71.6844 114.652 71.5584 114.78 71.4269L114.431 57.6628C114.337 55.913 112.844 54.5682 111.093 54.6636C109.343 54.7578 108 56.2522 108.094 58.002Z" fill="#263238" stroke="#263238" stroke-width="0.548" stroke-miterlimit="10" stroke-linecap="round"/>
<path d="M148.113 51.8699C146.29 57.7899 138.38 65.937 136.983 68.8053C132.667 77.6692 129.621 82.5058 126.263 87.5419C124.901 89.5843 123.424 89.8764 122.527 90.6102C121.213 91.6859 120.539 92.8296 118.293 94.5755C114.515 97.5133 111.338 94.7755 113.409 89.1235C115.48 83.4714 119.302 75.6048 119.302 75.6048C119.302 75.6048 120.254 71.6318 116.364 68.1898" fill="white"/>
<path d="M148.113 51.8699C146.29 57.7899 138.38 65.937 136.983 68.8053C132.667 77.6692 129.621 82.5058 126.263 87.5419C124.901 89.5843 123.424 89.8764 122.527 90.6102C121.213 91.6859 120.539 92.8296 118.293 94.5755C114.515 97.5133 111.338 94.7755 113.409 89.1234C115.48 83.4714 119.302 75.6048 119.302 75.6048C119.302 75.6048 120.254 71.6318 116.364 68.1898" stroke="#263238" stroke-width="0.548" stroke-miterlimit="10" stroke-linecap="round"/>
<path d="M114.26 92.646L115.289 90.4951C115.289 90.4951 115.438 90.6869 117.249 91.4327C119.06 92.1786 120.672 91.9182 120.672 91.9182C120.672 91.9182 118.058 96.0359 116.013 95.78C115.399 95.7033 114.962 95.4616 114.65 95.1608C113.982 94.5152 113.858 93.4844 114.26 92.646Z" fill="white" stroke="#263238" stroke-width="0.548" stroke-miterlimit="10" stroke-linecap="round"/>
<path d="M129.414 10.2312L125.058 38.5222C125.058 38.5222 130.314 43.1419 137.296 44.3973C144.279 45.6533 157.011 47.5264 157.011 47.5264L168.169 10.2312" fill="#263238"/>
<path d="M129.414 10.2312L125.058 38.5222C125.058 38.5222 130.314 43.1419 137.296 44.3973C144.279 45.6533 157.011 47.5264 157.011 47.5264L168.169 10.2312" stroke="#263238" stroke-width="0.548" stroke-miterlimit="10" stroke-linecap="round"/>
<path d="M154.777 41.1943C154.777 42.3829 153.813 43.3468 152.624 43.3468C151.435 43.3468 150.471 42.3829 150.471 41.1943C150.471 40.0056 151.435 39.0417 152.624 39.0417C153.813 39.0417 154.777 40.0056 154.777 41.1943Z" fill="white" stroke="#263238" stroke-width="1.096" stroke-miterlimit="10" stroke-linecap="round" stroke-linejoin="round"/>
<path d="M119.029 85.6579C118.909 85.5401 118.788 85.4162 118.664 85.2858" stroke="#263238" stroke-width="0.548" stroke-miterlimit="10" stroke-linecap="round"/>
<path d="M124.052 87.8022C124.052 87.8022 122.494 88.6445 119.758 86.3248" stroke="#263238" stroke-width="0.548" stroke-miterlimit="10" stroke-linecap="round"/>
<path d="M120.738 85.5455C120.738 85.5455 121.472 85.2863 123.761 86.6257" stroke="#263238" stroke-width="0.548" stroke-miterlimit="10" stroke-linecap="round"/>
<path d="M118.953 87.0641C118.953 87.0641 120.516 88.553 122.145 88.9086" stroke="#263238" stroke-width="0.548" stroke-miterlimit="10" stroke-linecap="round"/>
<path d="M120.527 179.289C120.527 179.289 121.024 184.458 122.164 187.715C123.304 190.972 123.378 194.199 120.489 193.645C118.757 193.312 117.625 191.085 117.625 191.085C117.625 191.085 119.851 193.962 118.439 196.893C117.028 199.824 112.193 194.58 112.193 194.58C112.193 194.58 114.155 200.455 112.113 200.514C110.071 200.572 108.1 197.887 106.827 196.927C105.553 195.966 102.258 187.089 100.73 185.936C99.2023 184.783 93.6483 185.79 91.7276 188.338C89.8068 190.885 85.9232 187.557 91.3681 179.277C96.813 170.996 103.845 165.91 108.693 166.369C113.541 166.828 120.527 179.289 120.527 179.289Z" fill="white" stroke="#263238" stroke-width="0.548" stroke-miterlimit="10" stroke-linecap="round"/>
<path d="M115.524 189.102L108.222 177.637C108.222 177.637 104.492 173.302 97.3094 176.166" stroke="#263238" stroke-width="0.548" stroke-miterlimit="10" stroke-linecap="round"/>
<path d="M111.437 190.814L103.419 182.371C103.419 182.371 99.5354 179.043 93.3386 181.962" stroke="#263238" stroke-width="0.548" stroke-miterlimit="10" stroke-linecap="round"/>
<path d="M95.6188 188.475L101.344 195.19L84.975 208.419C84.975 208.419 76.0305 212.862 72.7069 215.15C69.3833 217.439 51.256 219.752 51.256 219.752L47.865 198.815C47.865 198.815 58.4628 196.419 59.87 195.082C61.2773 193.746 75.7417 176.683 77.6625 174.136C79.5832 171.589 89.2878 169.317 89.2878 169.317C89.2878 169.317 93.6394 167.896 98.4996 163.57C103.36 159.244 109.617 160.679 111.973 162.854C114.328 165.03 120.739 171.058 122.004 175.209C123.27 179.359 123.896 183.828 120.771 182.67C115.585 180.748 112.913 169.889 106.635 171.267C103.762 171.898 96.0271 178.395 95.004 179.222C95.005 179.222 92.6289 185.022 95.6188 188.475Z" fill="white" stroke="#263238" stroke-width="0.548" stroke-miterlimit="10" stroke-linecap="round"/>
<path d="M139.122 184.142C139.092 183.855 138.854 183.627 138.557 183.615L136.967 183.554C136.64 183.541 136.365 183.795 136.353 184.122C136.339 184.448 136.594 184.723 136.921 184.736L138.511 184.797C138.838 184.81 139.113 184.555 139.125 184.229C139.126 184.199 139.125 184.17 139.122 184.142Z" fill="#263238" stroke="#263238" stroke-width="0.548" stroke-miterlimit="10" stroke-linecap="round"/>
<path d="M137.289 184.078C137.219 183.422 136.677 182.899 135.997 182.873L131.465 182.096L83.5262 179.012C81.7748 178.944 80.3007 180.309 80.2333 182.06C80.1637 183.813 81.5309 185.286 83.2818 185.353L131.683 185.862L135.894 185.574C136.639 185.603 137.268 185.022 137.297 184.275C137.299 184.209 137.297 184.143 137.289 184.078Z" fill="#18A532" stroke="#263238" stroke-width="0.548" stroke-miterlimit="10" stroke-linecap="round"/>
<path d="M83.5261 179.012L97.3599 179.902C98.4696 181.49 98.5567 183.569 97.4158 185.082C97.3029 185.232 97.1785 185.369 97.0486 185.498L83.2806 185.353C81.5298 185.286 80.1631 183.813 80.2321 182.06C80.3006 180.309 81.7747 178.944 83.5261 179.012Z" fill="#263238" stroke="#263238" stroke-width="0.548" stroke-miterlimit="10" stroke-linecap="round"/>
<path d="M72.707 215.15C78.5821 213.187 90.0238 205.433 93.0888 204.548C96.1538 203.663 103.649 202.245 108.636 198.813C113.621 195.381 117.366 192.488 120.248 188.667C123.129 184.846 120.345 181.71 114.724 183.865C109.104 186.02 101.294 189.958 101.294 189.958C101.294 189.958 97.3352 190.968 93.8363 187.13" fill="white"/>
<path d="M72.707 215.15C78.5821 213.187 90.0238 205.433 93.0888 204.548C96.1538 203.663 103.649 202.245 108.636 198.813C113.621 195.381 117.366 192.488 120.248 188.667C123.129 184.846 120.345 181.71 114.724 183.865C109.104 186.02 101.294 189.958 101.294 189.958C101.294 189.958 97.3352 190.968 93.8363 187.13" stroke="#263238" stroke-width="0.548" stroke-miterlimit="10" stroke-linecap="round"/>
<path d="M118.257 184.663L116.122 185.724C116.122 185.724 116.316 185.87 117.089 187.67C117.862 189.47 117.625 191.085 117.625 191.085C117.625 191.085 121.703 188.411 121.417 186.369C121.331 185.757 121.083 185.323 120.778 185.016C120.122 184.357 119.09 184.249 118.257 184.663Z" fill="white" stroke="#263238" stroke-width="0.548" stroke-miterlimit="10" stroke-linecap="round"/>
<path d="M58.733 194.304C58.733 194.304 63.9719 201.39 64.8317 207.525C65.6921 213.661 65.6756 219.92 65.6756 219.92L49.6839 223.759C49.6839 223.759 48.9589 213.806 47.5335 208.42C46.1082 203.034 43.806 197.77 43.806 197.77L58.733 194.304Z" fill="white" stroke="#263238" stroke-width="0.548" stroke-miterlimit="10" stroke-linecap="round"/>
<path d="M59.4619 206.667C58.0404 199.716 53.2974 194.572 53.2974 194.572L15.4465 200.595V243.357L60.228 224.882C60.228 224.882 60.8834 213.618 59.4619 206.667Z" fill="#263238" stroke="#263238" stroke-width="0.548" stroke-miterlimit="10" stroke-linecap="round"/>
<path d="M49.3265 225.243C49.3265 226.169 48.5758 226.921 47.6491 226.921C46.723 226.921 45.9717 226.17 45.9717 225.243C45.9717 224.317 46.7224 223.566 47.6491 223.566C48.5758 223.566 49.3265 224.317 49.3265 225.243Z" fill="white"/>
<path d="M54.0229 223.231C54.0229 224.157 53.2722 224.908 52.3455 224.908C51.4194 224.908 50.6681 224.157 50.6681 223.231C50.6681 222.304 51.4189 221.553 52.3455 221.553C53.2722 221.554 54.0229 222.304 54.0229 223.231Z" fill="white"/>
<path d="M107.63 191.192C107.51 191.074 107.384 190.954 107.253 190.833" stroke="#263238" stroke-width="0.548" stroke-miterlimit="10" stroke-linecap="round"/>
<path d="M109.849 196.182C109.849 196.182 110.668 194.612 108.308 191.91" stroke="#263238" stroke-width="0.548" stroke-miterlimit="10" stroke-linecap="round"/>
<path d="M107.543 192.901C107.543 192.901 107.295 193.64 108.668 195.908" stroke="#263238" stroke-width="0.548" stroke-miterlimit="10" stroke-linecap="round"/>
<path d="M109.034 191.094C109.034 191.094 110.546 192.635 110.926 194.259" stroke="#263238" stroke-width="0.548" stroke-miterlimit="10" stroke-linecap="round"/>
</svg>
